<?xml version="1.0" encoding="utf-8"?>
<!-- Generator: Adobe Illustrator 22.0.1, SVG Export Plug-In . SVG Version: 6.00 Build 0)  -->
<svg version="1.1" xmlns="http://www.w3.org/2000/svg" xmlns:xlink="http://www.w3.org/1999/xlink" x="0px" y="0px"
	 viewBox="0 0 659.7 844.3" style="enable-background:new 0 0 659.7 844.3;" xml:space="preserve">
<style type="text/css">
	.st0{display:none;}
	.st1{display:inline;}
	.st2{fill:none;}
	.st3{fill:#9ACA3C;}
	.st4{display:inline;fill:#33669A;}
	.st5{fill:#333333;}
	.st6{fill:#33669A;}
</style>
<g id="Layer_2" class="st0">
	<g class="st1">
		<path d="M-297.7,543c-9.4-12.3-17.7-25.6-24.3-39.9c-6.5-14.3-11.3-29.5-13.9-45c-1.3-7.8-2.1-15.6-2.3-23.5
			c-0.2-7.8,0.1-15.7,0.8-23.4c1.5-15.5,5-30.7,9.8-45.3c1.2-3.6,2.5-7.3,3.8-10.8l0.5-1.4c0.2-0.6,0.4-1.1,0.7-1.7
			c0.5-1.1,1-2.2,1.6-3.2c1.1-2,2.3-4,3.6-5.8c5.3-7.2,11.5-12.5,17.8-17.3c6.3-4.7,12.9-8.8,19.5-12.5c6.6-3.7,13.3-7.1,20.1-10.3
			c6.7-3.2,13.5-6.3,20.2-9.3c6.7-3,13.5-5.9,20.1-8.9c6.6-3,13.2-6,19.3-9.4c3.1-1.7,6-3.5,8.6-5.4c1.3-1,2.4-2,3.3-2.9
			c0.4-0.5,0.8-1,1-1.4c0.2-0.4,0.4-0.7,0.5-1l0.5-1.7l0,0c0.7-1.3,1.3-2.7,1.8-4c0.5-1.3,0.8-2.6,0.9-3.7c0.1-1.1-0.1-1.9-0.3-2.4
			c-0.1-0.3-0.3-0.4-0.4-0.6c-0.1-0.1-0.2-0.2-0.3-0.2c0,0-0.1-0.1-0.1-0.1c0,0,0,0,0,0l0.2,0.1l-2-8.3l0,0c1.2-1.2,2.3-2.2,3-3.1
			c0.7-0.9,1.1-1.6,1.3-2.3c0.2-0.8,0.3-1.7,0.2-2.9c-0.1-1.1-0.4-2.4-0.8-3.7l-0.5-1.9l0.9-1.8l0,0c0.3-0.6,0.6-1.3,0.9-2.1
			l0.4-1.1l0.4-1.1l0.5-1.4l1.1-0.9l0,0c4.8-4,9.2-8.7,13.1-13.7c3.8-5,7.1-10.4,9.2-16.1c2.1-5.7,3-11.6,2.3-17.4
			c-0.7-5.8-3-11.3-6.5-16.2l-0.9-1.3v-1.6v0c0-2.3-0.2-4.9-0.4-7.4c-0.2-2.5-0.6-5.1-1-7.6c-0.8-5-1.9-10-3.3-14.8
			c-1.4-4.8-3.3-9.4-5.6-13.5c-2.4-4.1-5.4-7.5-8.9-9.2l0,0l-1.8-1l-0.6-1.5c-1-2.5-2.5-5.2-4-7.8c-1.5-2.5-3.2-5-5.1-7.3
			c-1.9-2.2-3.9-4.3-6-5.9c-2.2-1.6-4.5-2.8-6.6-3l0,0l-3.3-0.6l-0.3-2.7c-0.3-2.3-0.4-4.3-0.8-6.1c-0.4-1.8-1-3.3-1.9-4.8
			c-0.9-1.4-2.2-2.8-3.6-3.9c-1.5-1.2-3.2-2.2-4.9-3.1l0,0l-1.1-0.6l-0.4-0.8c-2.3-5.3-5.5-10.1-9.8-13.9c-4.3-3.8-9.5-6.7-15-8.7
			c-2.8-1-5.6-1.8-8.6-2.5c-2.9-0.7-5.9-1.1-8.9-1.5c-6-0.7-12-0.9-18.1-0.8c6-0.6,12.1-0.9,18.2-0.7c3.1,0.1,6.1,0.3,9.2,0.8
			c3,0.4,6.1,1,9.1,1.8c6,1.6,11.9,4.2,17,8.1c2.5,1.9,4.9,4.2,6.9,6.7c2.1,2.5,3.8,5.2,5.3,8l-1.4-1.4l0,0c2.1,0.9,4.2,2,6.3,3.3
			c2,1.4,3.9,3.1,5.5,5.1c1.6,2.1,2.7,4.5,3.5,6.9c0.7,2.4,1.1,4.8,1.5,6.7l-3.6-3.3l0,0c4.2,0.3,7.8,2,10.9,4c3,2,5.6,4.5,7.9,7
			c2.3,2.5,4.4,5.2,6.3,8c1.9,2.8,3.6,5.7,5.2,9l-2.4-2.5l0,0c3,1.5,5.6,3.6,7.7,5.8c2.1,2.3,3.9,4.7,5.4,7.3c3,5.1,5,10.4,6.6,15.7
			c1.6,5.3,2.8,10.7,3.6,16.1c0.4,2.7,0.8,5.4,1,8.2c0.3,2.8,0.5,5.5,0.5,8.4v0l-0.9-2.9c4.2,6,7.3,13.2,8.2,20.7
			c0.5,3.8,0.4,7.6-0.1,11.3c-0.5,3.7-1.5,7.3-2.8,10.7c-2.6,6.9-6.3,13.1-10.6,18.7c-4.3,5.6-9.1,10.7-14.6,15.3l0,0l1.5-2.3
			l-0.5,1.4l-0.5,1.4c-0.4,0.9-0.7,1.8-1.3,2.9l0,0l0.3-3.7c0.5,1.8,1,3.6,1.2,5.6c0.2,2,0.1,4.3-0.5,6.6c-0.6,2.3-1.9,4.4-3.3,6
			c-1.3,1.6-2.6,2.7-3.6,3.8l0,0l-2-8.3l0.3,0.1l0.2,0.1l0.3,0.1c0.2,0.1,0.4,0.2,0.6,0.3c0.3,0.2,0.7,0.4,1,0.6
			c0.6,0.4,1.2,0.9,1.7,1.4c1,1,1.9,2.3,2.5,3.5c1.2,2.6,1.4,5.2,1.2,7.5c-0.2,2.3-0.8,4.3-1.4,6.2c-0.7,1.9-1.5,3.6-2.4,5.3l0,0
			l0.5-1.7c-0.2,1.6-0.7,3-1.2,4.2c-0.6,1.2-1.3,2.3-2,3.2c-1.4,1.9-2.9,3.4-4.5,4.8c-3.1,2.8-6.3,5-9.5,7.2
			c-6.4,4.2-13,7.9-19.5,11.4c-13.1,7-26.2,13.6-38.9,20.6c-6.3,3.5-12.6,7.1-18.6,10.9c-6,3.8-11.8,7.8-17,12.1
			c-5.2,4.3-9.9,9-13.2,13.9c-0.8,1.2-1.5,2.4-2.1,3.7c-0.3,0.6-0.6,1.2-0.8,1.8c-0.1,0.3-0.2,0.6-0.3,0.9l-0.4,1.2
			c-1.1,3.3-2.2,6.7-3.1,10.1c-3.9,13.5-6.4,27.3-7.3,41.1c-0.4,6.9-0.5,13.8,0,20.6c0.4,6.8,1.2,13.6,2.5,20.3
			c2.5,13.4,7,26.4,12.9,38.7c3,6.2,6.2,12.2,9.9,18c3.7,5.8,7.7,11.5,11.9,17L-297.7,543z"/>
	</g>
	<g class="st1">
		<path d="M-589.8,247.1c-0.7-4.8-1.7-9.8-2.4-15c-0.7-5.2-1.3-10.5-1.2-15.9c0.1-5.4,0.8-11,2.6-16.4c1.8-5.4,4.7-10.5,8.4-14.7
			l-1.1,2.4c0.9-6.2,2-12.5,3.4-18.8c1.4-6.3,3.3-12.6,6-18.7c2.7-6.1,6.2-11.8,10.6-16.9c4.3-5.1,9.3-9.5,14.7-13.3l-1.3,1.6
			c2.8-5.8,6-11.5,9.5-17c3.5-5.5,7.5-10.7,11.9-15.6c4.4-4.9,9.3-9.4,14.9-13.1c5.5-3.7,11.7-6.7,18.2-8.4l-2,1.6
			c3.2-5.6,7.5-10.6,12.6-14.6c5.1-4,10.8-6.9,16.6-9.2c5.8-2.3,11.7-4,17.5-5.7c5.8-1.7,11.6-3.4,17.1-5.5l-0.5,0.3
			c7.5-5.1,15.7-9.2,24.4-11.7c4.4-1.3,8.8-2.1,13.4-2.4c2.3-0.2,4.6-0.2,6.9,0c1.1,0.1,2.3,0.2,3.4,0.4c1.2,0.2,2.1,0.3,3.2,0.4
			c4.3,0.3,8.6,0,12.9-0.5c4.3-0.5,8.7-1.3,13-2c8.7-1.5,17.4-3.1,26.3-3.3l0,1c-8.8,0.6-17.3,2.6-26,4.5
			c-8.6,1.9-17.4,3.9-26.5,3.6c-1.1,0-2.4-0.1-3.4-0.3c-1.1-0.1-2.1-0.2-3.2-0.2c-2.1-0.1-4.2,0-6.4,0.3c-4.2,0.4-8.4,1.4-12.5,2.7
			c-8.1,2.7-15.9,6.7-22.8,11.8l-0.2,0.2l-0.3,0.1c-11.4,4.7-23.3,7.5-34.2,12.1c-5.4,2.3-10.5,5-14.9,8.7c-4.4,3.6-8,8-10.8,12.9
			l-0.7,1.2l-1.4,0.4c-5.7,1.6-11.1,4.3-16,7.8c-4.9,3.5-9.3,7.6-13.3,12.2c-8,9.2-14.3,20-19.6,31.2l-0.4,0.9l-0.9,0.6
			c-4.8,3.5-9.2,7.5-12.9,12c-3.7,4.5-6.7,9.6-9,15c-2.3,5.4-4,11.2-5.2,17.1c-1.3,5.9-2.1,12-3,18.2l-0.2,1.3l-0.9,1.1
			c-2.9,3.4-5.1,7.3-6.4,11.5c-1.4,4.3-1.9,8.8-1.9,13.5c0,4.7,0.5,9.5,1.3,14.4c0.7,4.9,1.8,9.8,2.6,15L-589.8,247.1z"/>
	</g>
	<g class="st1">
		<path d="M-583.4,188.6c0.8-0.5,1.4-0.8,2-1.1c0.7-0.3,1.3-0.7,2-1c1.3-0.6,2.7-1.2,4-1.8c2.7-1.1,5.4-2,8.2-2.7
			c5.6-1.5,11.4-2.3,17.2-2c2.9,0.1,5.8,0.6,8.6,1.3c2.8,0.7,5.5,1.7,8,3.1l1,0.5l0.9,0.6c0.6,0.4,1.2,0.7,1.8,1.1
			c1.1,0.8,2.3,1.6,3.4,2.5c2.2,1.8,4.1,3.8,5.9,5.9l-0.7,0.7c-2-1.8-4.1-3.6-6.3-5c-1.1-0.8-2.3-1.4-3.4-2
			c-0.6-0.3-1.2-0.6-1.8-0.8l-0.9-0.4l-0.9-0.3c-2.4-1-5-1.5-7.6-1.9c-2.6-0.4-5.2-0.4-7.7-0.2c-5.2,0.4-10.2,1.7-15,3.6
			c-2.4,1-4.7,2.1-7,3.3c-1.1,0.6-2.2,1.3-3.3,2c-0.5,0.3-1.1,0.7-1.6,1.1c-0.5,0.3-1.1,0.7-1.4,1L-583.4,188.6z"/>
	</g>
	<g class="st1">
		<path d="M-596,169.9c0.6-0.2,1.3-0.3,2-0.3c0.6,0.1,1.3,0.2,1.9,0.4c1.2,0.4,2.3,1.1,3.3,1.8c2,1.4,3.8,3.2,5.3,5
			c1.6,1.8,3,3.8,4.3,5.9c1.3,2.1,2.4,4.3,3.2,6.8l-5.3,1.3c-0.3-2-1-4.1-1.8-6.2c-0.8-2.1-1.8-4.1-3-6c-1.2-1.9-2.5-3.7-4.1-5.3
			c-0.8-0.8-1.6-1.5-2.6-2c-0.5-0.3-1-0.4-1.4-0.6c-0.5-0.1-1-0.1-1.5,0L-596,169.9z"/>
	</g>
	<g class="st1">
		<path d="M-591,172.3c-0.4-0.8-0.7-1.6-0.9-2.4c-0.2-0.8-0.4-1.7-0.4-2.6h1c0,0.7,0.3,1.5,0.5,2.2c0.3,0.7,0.6,1.5,1,2.1
			L-591,172.3z"/>
	</g>
	<g class="st1">
		<path d="M-532,185.7c1,0.1,2,0.2,3,0.2c1,0,2,0,3,0c2-0.1,4-0.4,5.9-1l0.4,0.9c-2,0.9-4.1,1.3-6.2,1.6c-1.1,0.1-2.1,0.2-3.2,0.3
			c-1.1,0-2.1,0.1-3.2,0L-532,185.7z"/>
	</g>
	<g class="st1">
		<path d="M-551.1,124c1.1-1,2.2-1.7,3.3-2.4c1.1-0.7,2.4-1.3,3.6-1.8c2.5-1,5-2,7.5-2.8c5.1-1.6,10.5-2.7,16.1-2.4
			c2.8,0.2,5.6,0.8,8.2,2c2.6,1.2,4.9,3.1,6.5,5.4c1.7,2.3,2.8,4.8,3.4,7.4c0.4,1.3,0.5,2.6,0.8,3.9c0.2,1.3,0.2,2.6,0.3,3.9l-1,0.1
			c-0.3-1.2-0.5-2.5-0.9-3.7c-0.4-1.2-0.7-2.4-1.2-3.5c-0.9-2.3-2.2-4.4-3.8-6c-1.6-1.7-3.5-2.9-5.6-3.6c-2.1-0.7-4.4-0.9-6.7-0.8
			c-4.7,0.2-9.3,1.7-13.8,3.6c-4.5,1.8-8.7,4.6-13.2,6.3L-551.1,124z"/>
	</g>
	<g class="st1">
		<path d="M-574.2,113.9c2.8-2.5,5.8-4.8,9.1-6.7c1.7-0.9,3.4-1.8,5.4-2.4c1.9-0.6,4.1-1,6.4-0.6c2.3,0.3,4.8,1.8,6.3,3.8
			c1.5,2,2.3,4.1,2.8,6.2c0.9,4.2,0.9,8.2,0.7,12.1l-8.4-1.2c0.8-3.4,1.3-6.8,1.2-9.9c-0.1-1.5-0.4-3-0.9-4.1
			c-0.6-1.1-1.4-1.8-2.6-2.3c-1.3-0.4-2.9-0.5-4.5-0.3c-1.7,0.2-3.4,0.7-5,1.3c-3.4,1.2-6.6,2.9-9.7,4.8L-574.2,113.9z"/>
	</g>
	<g class="st1">
		<path d="M-507.7,120.3c0.8,0.5,1.8,1.1,2.7,1.5c0.9,0.5,1.9,0.9,2.9,1.2c2,0.7,4.1,1,6.2,0.8l0.2,1c-2.2,0.5-4.6,0.3-6.8-0.2
			c-1.1-0.2-2.2-0.6-3.3-0.9c-1.1-0.4-2.1-0.8-3.2-1.4L-507.7,120.3z"/>
	</g>
	<g class="st1">
		<path d="M-563.7,109.4c-1.1,0.1-2.1,0-3.1-0.3c-1-0.2-1.9-0.6-2.8-1.2c-0.8-0.5-1.6-1.2-2.2-2c-0.6-0.8-1.1-1.6-1.5-2.5l0.9-0.4
			c0.5,0.7,1,1.5,1.6,2c0.6,0.6,1.3,1.1,2,1.4c0.7,0.4,1.5,0.6,2.4,0.7c0.8,0.1,1.7,0.1,2.4-0.1L-563.7,109.4z"/>
	</g>
	<g class="st1">
		<path d="M-291.1,5.8c-3.1-1.7-6.5-2.7-10-3.2c-3.5-0.5-7.1-0.4-10.7-0.3l-0.2,0l-0.3-0.2c-3.4-2-7.2-3.5-11-4.9
			c-3.8-1.3-7.7-2.5-11.6-3.3c-3.9-0.9-7.9-1.5-11.9-1.6c-4-0.2-8,0.1-11.5,1.4l-0.4,0.2l-0.5-0.1c-8.3-2.3-16.9-3.8-25.3-3.4
			c-4.2,0.2-8.4,0.9-12.3,2.3c-3.9,1.4-7.5,3.6-10.4,6.5c-3,2.8-5.2,6.4-6.9,10.2c-1.8,4-3.6,8-5.7,12c-2.1,3.9-4.4,7.8-7.3,11.3
			c-1.4,1.8-3,3.5-4.9,4.9c-1.8,1.5-4,2.7-6.1,3.6l-1.2-3.8l0,0c2.4-0.3,4.8-0.5,7.2-0.6c2.4-0.1,4.8,0,7.1,0.3
			c2.4,0.3,4.8,0.7,7,1.7c2.2,0.9,4.4,2.4,5.7,4.5l-0.8,0.5c-1.3-1.8-3.3-2.8-5.4-3.4c-2.1-0.6-4.4-0.8-6.6-0.8
			c-2.2,0-4.5,0.2-6.7,0.5c-2.2,0.3-4.5,0.7-6.6,1.3l0,0l-18.9,4l17.6-7.8c1.9-0.9,3.6-1.8,5.2-3.1c1.6-1.3,3-2.7,4.3-4.3
			c2.7-3.2,4.9-6.9,7-10.6c2.1-3.8,3.9-7.7,5.7-11.6c1.9-4.1,4.4-8.1,7.8-11.3c3.3-3.2,7.4-5.6,11.8-7.1c4.3-1.5,8.9-2.2,13.3-2.3
			c9-0.3,17.8,1.4,26.3,3.9l-0.9,0c4.2-1.4,8.5-1.6,12.6-1.4c4.2,0.2,8.3,1,12.3,1.9c4,1,8,2.2,11.8,3.7c1.9,0.7,3.8,1.5,5.7,2.4
			c1.9,0.9,3.7,1.8,5.5,3l-0.5-0.1c3.6,0,7.3,0,10.9,0.7c3.6,0.6,7.2,1.9,10.3,3.8L-291.1,5.8z"/>
	</g>
	<g class="st1">
		<path d="M-385.6,21.2c0.2-0.6,0.4-0.9,0.7-1.3c0.2-0.4,0.5-0.7,0.7-1.1c0.5-0.7,1-1.3,1.6-1.9c0.6-0.6,1.2-1.2,1.8-1.7
			c0.6-0.5,1.3-1,1.9-1.5c2.7-1.9,5.6-3.2,8.6-4.2c1.5-0.5,3-0.9,4.5-1.2c1.5-0.4,3.1-0.5,4.6-0.8c1.5-0.1,3.1-0.3,4.6-0.4l4.6-0.1
			l0,1l-4.5,0.5c-1.5,0.2-3,0.5-4.5,0.8c-1.5,0.4-2.9,0.7-4.3,1.1c-1.4,0.5-2.8,0.9-4.2,1.5c-2.7,1.1-5.3,2.6-7.5,4.4
			c-0.5,0.5-1.1,0.9-1.6,1.4c-0.5,0.5-1,1-1.4,1.6c-0.4,0.5-0.8,1.1-1.2,1.7c-0.2,0.3-0.3,0.6-0.5,0.9c-0.1,0.3-0.3,0.6-0.3,0.8
			L-385.6,21.2z"/>
	</g>
	<g class="st1">
		<path d="M-350.3,1.5c-0.7-1.2-1.7-2.4-2.8-3.4c-1.1-1-2.3-1.9-3.5-2.7c-1.3-0.8-2.6-1.4-3.9-2c-0.7-0.3-1.4-0.5-2.1-0.7
			c-0.7-0.2-1.4-0.4-2.1-0.6l0.8-2.8c0.8,0.3,1.5,0.5,2.3,0.8c0.7,0.3,1.5,0.6,2.2,1c1.4,0.7,2.8,1.6,4.1,2.6c1.3,1,2.4,2.1,3.5,3.3
			c1,1.2,1.9,2.5,2.6,4L-350.3,1.5z"/>
	</g>
	<g class="st1">
		<path d="M-482,25c1.3-0.2,2.4-0.2,3.5-0.3c1.1,0,2.3-0.1,3.4-0.1c2.2,0,4.5,0.1,6.7,0.2c2.2,0.1,4.4,0.3,6.6,0.6
			c2.2,0.2,4.4,0.5,6.5,0.8l-0.1,1c-2.2,0.1-4.3,0.2-6.5,0.3c-2.2,0.2-4.3,0.4-6.5,0.6c-2.1,0.3-4.3,0.6-6.4,1
			c-1,0.2-2.1,0.4-3.1,0.6c-1,0.2-2.1,0.5-2.9,0.8L-482,25z"/>
	</g>
	<g class="st1">
		<path d="M-454.9,4.6c3.5-0.1,6.8,0.1,10.2,0.3c1.7,0.1,3.4,0.3,5.1,0.6c1.7,0.3,3.4,0.6,5,1.3l-0.3,0.9c-1.6-0.3-3.2-0.4-4.8-0.4
			c-1.6,0-3.3,0.1-4.9,0.3c-3.3,0.3-6.6,0.7-9.7,1.3L-454.9,4.6z"/>
	</g>
	<g class="st1">
		<path d="M-542.1,56.8c0.5-0.3,0.8-0.3,1.1-0.5c0.3-0.1,0.7-0.2,1-0.3c0.7-0.2,1.3-0.4,1.9-0.6c1.3-0.3,2.6-0.6,3.8-0.8
			c2.6-0.4,5.1-0.8,7.6-0.9c2.5-0.2,5.1-0.3,7.6-0.4l3.8,0l3.8,0.1l0,1l-3.7,0.5l-3.7,0.6c-2.4,0.4-4.9,0.9-7.3,1.5
			c-2.4,0.6-4.8,1.2-7.1,2c-1.1,0.4-2.3,0.8-3.4,1.3c-0.5,0.2-1.1,0.5-1.6,0.7c-0.3,0.1-0.5,0.3-0.7,0.4c-0.2,0.1-0.5,0.3-0.5,0.3
			L-542.1,56.8z"/>
	</g>
	<g class="st1">
		<path d="M-578.5,90.6c2.6-1.1,5-1.9,7.5-2.6c2.5-0.7,5.1-1.3,7.7-1.7c2.6-0.4,5.2-0.7,7.8-0.8c2.6-0.1,5.2,0.1,7.8,0.3l-0.1,1
			c-2.5,0.1-5,0.2-7.5,0.7c-2.5,0.4-4.9,1-7.3,1.8c-2.4,0.7-4.7,1.6-7,2.6c-2.3,1-4.5,2.1-6.5,3.3L-578.5,90.6z"/>
	</g>
	<g class="st1">
		<path d="M-592.7,124.5c1.5-0.8,2.8-1.4,4.3-1.9c1.4-0.6,2.8-1.1,4.3-1.6c2.9-1,5.7-1.8,8.6-2.6l0.4,0.9c-2.6,1.5-5.1,3-7.5,4.7
			c-1.2,0.8-2.4,1.7-3.5,2.6c-1.1,0.9-2.3,1.8-3.2,2.7L-592.7,124.5z"/>
	</g>
	<g class="st1">
		<path d="M-608.4,180.1c1.1-1.6,2.2-3.1,3.3-4.6c1.1-1.5,2.3-2.9,3.5-4.3c2.4-2.8,5-5.4,7.9-7.8l0.7,0.7c-2.2,2.8-4,5.9-5.7,9
			c-0.8,1.6-1.6,3.2-2.3,4.8c-0.7,1.6-1.4,3.3-2,4.8L-608.4,180.1z"/>
	</g>
	<g class="st1">
		<path d="M-458.3,90.5c-1.9-3.7-4.3-7.1-7.3-9.9c-1.5-1.4-3.1-2.6-4.8-3.7c-1.7-1-3.5-1.9-5.4-2.6c-3.8-1.3-7.8-1.8-11.7-1.7
			c-2,0.1-4,0.3-5.9,0.6c-1,0.2-1.9,0.4-2.9,0.6c-0.9,0.2-1.9,0.5-2.7,0.8l-12.8,5l10.3-9.5l0,0c2-1.4,3.9-3,5.5-4.7
			c1.6-1.7,2.7-3.7,2.1-5c-0.3-0.7-1.1-1.5-2.1-2.1c-1-0.6-2.1-1-3.3-1.4c-2.4-0.7-4.9-1.1-7.5-1.3v-1c2.6-0.2,5.3-0.1,7.9,0.3
			c1.3,0.2,2.7,0.5,4,1c1.3,0.5,2.7,1.3,3.7,2.9c0.5,0.8,0.8,1.7,0.8,2.6c0.1,0.9-0.1,1.8-0.3,2.5c-0.5,1.6-1.2,2.8-2,4
			c-1.6,2.4-3.5,4.3-5.5,6.2l0,0l-2.6-4.5c1.2-0.4,2.3-0.5,3.4-0.8c1.1-0.2,2.2-0.3,3.3-0.4c2.2-0.2,4.4-0.3,6.6-0.1
			c4.4,0.2,8.8,1.2,12.8,3c2,0.9,3.9,2,5.7,3.3c1.8,1.3,3.4,2.8,4.8,4.4c2.9,3.3,5.1,7,6.7,10.9L-458.3,90.5z"/>
	</g>
	<g class="st1">
		<path d="M-498.3,57.3c-0.5-0.3-0.8-0.7-1.1-1c-0.3-0.4-0.6-0.8-0.8-1.2c-0.5-0.8-0.8-1.7-1.1-2.6l0.9-0.3c0.3,0.8,0.8,1.5,1.3,2.1
			c0.3,0.3,0.5,0.6,0.8,0.8c0.3,0.2,0.6,0.5,0.9,0.6L-498.3,57.3z"/>
	</g>
	<g class="st1">
		<path d="M-470.7,74c0.7,0.5,1.5,1,2.3,1.5c0.8,0.5,1.7,0.9,2.6,1.2c0.9,0.4,1.8,0.7,2.7,0.9c0.9,0.3,1.9,0.5,2.8,0.7l-0.1,1
			c-1-0.1-2-0.2-3-0.4c-1-0.2-2-0.4-2.9-0.7c-1-0.3-1.9-0.6-2.9-1c-1-0.4-1.8-0.8-2.8-1.4L-470.7,74z"/>
	</g>
	<g class="st1">
		<path d="M-336.1,20.2c0.5-1,1.2-2,2-2.8c0.8-0.9,1.7-1.6,2.7-2.2c1-0.6,2-1.1,3.2-1.5c1.1-0.3,2.3-0.5,3.4-0.6l0.1,0.5
			c-1.1,0.2-2.2,0.5-3.2,0.9c-1,0.4-2,0.9-2.9,1.5c-0.9,0.6-1.8,1.3-2.6,2c-0.8,0.8-1.5,1.6-2.2,2.5L-336.1,20.2z"/>
	</g>
	<g class="st1">
		<path d="M-520.6,302.9c-0.3-0.8-0.5-1.4-0.7-2.1c-0.2-0.7-0.4-1.3-0.6-2c-0.4-1.3-0.7-2.7-1-4c-0.6-2.7-1-5.4-1.2-8.2
			c-0.4-5.6,0-11.4,2.1-16.9c1-2.7,2.5-5.4,4.4-7.7c1.9-2.3,4.1-4.3,6.5-5.9c4.9-3.2,10.4-4.8,15.8-5.7l-2.4,3.7l0,0
			c-1.7-6.6-3.6-13.5-3.8-20.9c0-3.7,0.4-7.6,2.2-11.4c0.9-1.8,2.2-3.6,3.7-5c1.5-1.4,3.3-2.5,5.1-3.3c3.7-1.6,7.4-2.2,11.1-2.3
			c1.8-0.1,3.7-0.1,5.6,0.1c1.9,0.2,3.8,0.6,5.7,1.2c1.9,0.6,3.7,1.5,5.4,2.8c1.7,1.2,3.1,2.8,4.2,4.6c1.1,1.8,1.8,3.7,2.3,5.6
			c0.2,1,0.4,2,0.5,3c0,0.5,0.1,1,0.1,1.5c0,0.5,0,1-0.1,1.6l-4.9-2.6c3.8-3.2,7.7-6.3,12-8.9c4.3-2.6,9.1-4.9,14.5-5.8
			c2.7-0.4,5.5-0.5,8.3,0.1c2.8,0.5,5.4,1.7,7.7,3.3c4.6,3.2,7.7,7.7,10.1,12.2l0,0l-5.5,0.4c1.1-3.5,2.8-6.7,4.7-9.7
			c1.9-3,4.1-5.8,6.7-8.2c2.6-2.5,5.4-4.7,8.6-6.5c3.2-1.8,6.7-3.1,10.4-3.7c3.7-0.6,7.4-0.5,11,0.2c3.6,0.7,7,2,10.2,3.7
			c0.8,0.4,1.6,0.8,2.3,1.3l1,0.6c0.3,0.2,0.6,0.4,1,0.5c1.3,0.7,2.6,1.1,3.9,1.4c2.6,0.5,4.8-0.2,6.7-2c1.8-1.9,3.1-4.6,3.8-7.6
			c0.8-3,1.1-6.1,1-9.3c-0.1-6.3-1.2-12.7-3.4-18.8c-4.3-12.2-12.4-23.2-23.3-30.5l0.5-0.9c5.8,3.3,11.1,7.6,15.5,12.8
			c4.5,5.1,8,11,10.6,17.3c2.6,6.3,4.3,13,4.6,20c0.1,3.5,0,7-0.8,10.5c-0.8,3.5-2.1,7.1-4.8,10.1c-1.4,1.5-3.1,2.8-5.2,3.5
			c-2,0.7-4.2,0.8-6.2,0.6c-2-0.3-3.9-0.9-5.6-1.7c-0.4-0.2-0.8-0.4-1.3-0.6l-1.1-0.6c-0.7-0.4-1.4-0.7-2.1-1.1
			c-5.5-2.7-11.6-3.9-17.4-2.9c-5.8,1-11.2,4.1-15.6,8.4c-2.2,2.1-4.2,4.5-6,7.1c-1.7,2.6-3.3,5.3-4.3,8.1l-2.4,6.5l-3.1-6.1l0,0
			c-2.1-4-4.8-7.7-8.2-10c-1.7-1.2-3.6-2-5.5-2.4c-2-0.4-4.1-0.4-6.1,0c-4.2,0.7-8.4,2.6-12.3,5c-3.9,2.4-7.7,5.3-11.3,8.3l-5.6,4.8
			l0.6-7.3c0-0.2,0-0.6,0-0.9c0-0.4,0-0.7-0.1-1.1c-0.1-0.7-0.2-1.4-0.3-2.1c-0.3-1.4-0.8-2.7-1.6-3.8c-1.4-2.3-3.7-3.9-6.4-4.8
			c-2.7-0.9-5.9-1.2-9-1c-3.2,0.1-6.3,0.7-8.9,1.8c-2.6,1.2-4.7,3-5.9,5.4c-1.2,2.5-1.6,5.5-1.6,8.6c0,3.1,0.5,6.4,1.2,9.6
			c0.7,3.2,1.5,6.5,2.4,9.8l0,0l0.9,3.1l-3.2,0.7c-4.8,1-9.4,2.6-13.1,5.2c-3.7,2.6-6.5,6.3-7.9,10.6c-1.5,4.3-1.7,9.1-1.2,13.8
			c0.3,2.4,0.7,4.8,1.3,7.1c0.3,1.2,0.6,2.3,1,3.5c0.2,0.6,0.4,1.1,0.6,1.7c0.2,0.5,0.4,1.2,0.6,1.6L-520.6,302.9z"/>
	</g>
	<g class="st1">
		<path d="M-562.4,279.5c0-0.9,0-1.5,0-2.2l0.1-2c0.1-1.3,0.1-2.7,0.2-4c0.2-2.6,0.5-5.3,0.8-7.9c0.7-5.2,1.8-10.4,3.3-15.5
			c1.5-5.1,3.5-10.1,6.2-14.8c2.7-4.7,6.2-9,10.4-12.5c2.1-1.8,4.4-3.3,6.9-4.5c0.6-0.3,1.2-0.6,1.8-0.9c0.3-0.2,0.3-0.2,0.5-0.3
			c0.2-0.1,0.4-0.2,0.6-0.4c0.7-0.5,1.5-1.2,2.1-2c1.4-1.6,2.7-3.6,3.9-5.7c1.3-2.1,2.6-4.3,4.1-6.5c1.5-2.2,3.3-4.3,5.4-6.2
			c2.1-1.8,4.6-3.4,7.2-4.4c2.6-1,5.4-1.7,8.1-1.9c2.7-0.3,5.4-0.3,8.1-0.1l0,0l-2.7,6.1c-2.2-2-3.9-4.3-5.4-6.6
			c-1.5-2.3-2.8-4.8-3.8-7.4c-1-2.6-1.8-5.3-2.3-8.1c-0.5-2.8-0.6-5.8-0.1-8.7c0.5-3,1.7-6,3.6-8.5c1.9-2.5,4.4-4.5,7-5.9
			c5.3-2.8,10.8-3.6,16.2-4l0,0l-3.3,3.7c-0.3-4.7,0.3-9.6,2-14.2c1.7-4.6,4.6-8.9,8.6-12c3.9-3.1,8.7-5,13.5-5.7
			c2.4-0.4,4.8-0.5,7.1-0.5c2.3,0.1,4.7,0.3,6.9,0.6l0,0l-4.1,3.5c0.1-3.4,0.8-6.3,1.6-9.3c0.9-2.9,2.1-5.7,3.6-8.3
			c2.9-5.3,7-10.1,12.5-13.4c2.7-1.6,5.7-2.9,8.8-3.5c3.1-0.7,6.3-0.9,9.3-0.6c6.2,0.5,11.9,2.5,17.2,5l0,0l-5,3
			c0.5-4.7,1-9.4,1.8-14.2c0.9-4.7,2.1-9.6,4.4-14c2.3-4.5,5.8-8.3,9.9-10.8c4.1-2.6,8.7-4.2,13.2-5.3l0.3,1
			c-4.3,1.6-8.6,3.6-12.1,6.4c-3.5,2.8-6.2,6.4-7.7,10.5c-1.6,4.1-2.3,8.5-2.6,13c-0.3,4.5-0.3,9.1-0.3,13.8l0,5l-5.1-2l0,0
			c-4.7-2.3-9.7-4-14.7-4.3c-5-0.4-9.8,0.6-14,3.2c-4.1,2.5-7.5,6.4-10,10.9c-1.2,2.2-2.3,4.6-3,7c-0.8,2.4-1.3,5-1.3,7.1l0,4
			l-4-0.5l0,0c-2-0.3-4-0.5-6-0.6c-2,0-3.9,0.1-5.8,0.4c-3.8,0.6-7.4,2-10.2,4.3c-2.9,2.3-5,5.4-6.3,8.9c-1.3,3.5-1.8,7.5-1.5,11.4
			l0.2,3.5l-3.5,0.2l0,0c-4.8,0.3-9.5,1.1-13.3,3.1c-1.9,1-3.5,2.3-4.7,3.9c-1.2,1.6-1.9,3.4-2.3,5.5c-0.7,4.1,0.2,8.8,1.9,13
			c0.9,2.2,1.9,4.2,3.2,6.2c1.2,1.9,2.7,3.8,4.2,5.2l7.8,7.1l-10.5-1l0,0c-4.6-0.7-9.2-0.6-13.2,0.9c-4,1.5-7.2,4.5-9.8,8.3
			c-1.3,1.9-2.5,4-3.7,6.2c-1.2,2.2-2.5,4.5-4.3,6.8c-0.9,1.1-1.9,2.2-3.2,3.2c-0.3,0.2-0.6,0.5-1,0.7c-0.3,0.2-0.8,0.5-1.1,0.6
			c-0.5,0.3-1.1,0.6-1.5,0.9c-1.9,1.2-3.7,2.5-5.3,4c-3.2,3-5.8,6.8-7.7,10.9c-2,4.1-3.2,8.6-4.1,13.1c-0.9,4.6-1.3,9.3-1.3,13.9
			c0,2.3,0.1,4.7,0.2,7c0.1,1.2,0.2,2.3,0.3,3.5l0.2,1.7c0.1,0.5,0.2,1.2,0.3,1.5L-562.4,279.5z"/>
	</g>
	<g class="st1">
		<path d="M-364.8,181.8c-2.7,0.5-5.4,0.8-8.2,0.8c-2.7,0-5.5-0.3-8.2-0.8c-1.4-0.3-2.7-0.7-4.1-1.1c-1.3-0.5-2.7-1-3.9-1.7
			c-1.3-0.6-2.5-1.4-3.7-2.2c-0.6-0.4-1.1-0.9-1.7-1.4l-0.8-0.7l-0.7-0.7c-2-1.8-3.9-3.6-5.9-5.3c-2-1.6-4-3.1-6.1-4
			c-4.2-1.8-9.2-1.2-14.4-0.4l-0.2,0l-0.4,0c-3.3-0.1-6.6,0-9.8,0.4c-3.2,0.4-6.4,1-9.4,2.1c-6,2-11.3,5.8-14.1,11.3
			c-1.7,3.1-3.5,6.3-5.9,9.2c-2.4,2.9-5.4,5.6-9,7.4c-3.7,1.7-7.8,2.4-11.6,2.2c-3.9-0.2-7.5-1.1-11.1-2.2l2.3-6.5
			c3,1,6.1,1.9,9.1,2.1c3,0.2,6-0.2,8.6-1.4c2.6-1.2,4.9-3.2,7-5.5c2-2.4,3.8-5.2,5.4-8.1c1.8-3.4,4.4-6.4,7.4-8.8
			c3-2.4,6.4-4.2,9.9-5.5c7-2.5,14.5-3.2,21.7-2.6l-0.6,0c2.8-0.3,5.6-0.5,8.5-0.4c2.9,0.1,6,0.7,8.8,2.1c2.8,1.4,5,3.3,7,5.2
			c2,1.9,3.9,3.9,5.7,5.9l0.7,0.7l0.7,0.6l1.3,1.3c1,0.7,1.9,1.6,3,2.2c1,0.7,2.2,1.2,3.3,1.8c1.2,0.5,2.4,1,3.6,1.3
			c4.9,1.6,10.3,2.1,15.6,1.7L-364.8,181.8z"/>
	</g>
	<g class="st1">
		<path d="M-485.9,172.8c2.3-0.4,4.5-0.3,6.7-0.1c2.2,0.2,4.5,0.7,6.7,1.3c2.2,0.7,4.4,1.5,6.4,2.5c1.1,0.5,2,1.1,3.1,1.6
			c1,0.6,2,1.2,3,1.8l-4.8,5.7c-0.7-0.7-1.4-1.5-2.1-2.2c-0.8-0.7-1.5-1.4-2.3-2c-1.6-1.3-3.2-2.5-5-3.6c-1.8-1-3.6-1.9-5.6-2.7
			c-1.9-0.7-4-1.3-6.1-1.4L-485.9,172.8z"/>
	</g>
	<g class="st1">
		<path d="M-462.6,142.9c2.1,1.3,4.1,2.7,6,4.2c1.9,1.5,3.8,3.1,5.7,4.7c1.8,1.7,3.6,3.4,5.3,5.3c1.7,1.9,3.2,3.9,4.7,6l-4.9,2.7
			c-1-2-2.1-4.1-3.3-6c-1.3-2-2.6-3.9-4.1-5.7c-3-3.7-6.3-7.2-9.9-10.4L-462.6,142.9z"/>
	</g>
	<g class="st1">
		<path d="M-454.4,136.1c1.4,3,2.6,6,3.6,9.1c1,3.1,1.8,6.4,2.2,9.7l-3.6,0.2c0-3.1-0.3-6.2-0.8-9.4c-0.6-3.1-1.3-6.3-2.3-9.3
			L-454.4,136.1z"/>
	</g>
	<g class="st1">
		<path d="M-381,120.8c-5.2-0.7-10.7-0.3-15.7,1.3c-2.5,0.8-4.8,2-6.7,3.6c-2,1.6-3.6,3.5-4.9,5.6c-1.3,2.1-2.2,4.5-2.8,7
			c-0.7,2.4-0.9,5-1.1,7.6c-0.2,5.1,0.4,10.4,1.3,15.5l-6.6,0.9c-0.5-5.6-0.7-11.3,0-16.9c0.4-2.8,0.9-5.7,1.9-8.4
			c0.9-2.7,2.2-5.4,4-7.8c1.7-2.4,3.9-4.4,6.3-6c2.4-1.6,5.1-2.7,7.9-3.4c2.7-0.7,5.6-0.9,8.3-0.9c2.8,0,5.5,0.3,8.2,1L-381,120.8z"
			/>
	</g>
	<g class="st1">
		<path d="M-417.9,108.8c2.3-0.3,4.6-0.2,6.9,0c2.3,0.3,4.6,0.8,6.8,1.6c2.2,0.8,4.4,1.9,6.3,3.4c2,1.4,3.6,3.3,5.2,5.2l-4.2,2.6
			c-1-1.7-2.1-3.4-3.6-4.8c-1.4-1.4-3.1-2.7-5-3.7c-1.8-1-3.8-1.8-5.9-2.3c-2.1-0.5-4.3-0.9-6.4-1L-417.9,108.8z"/>
	</g>
	<g class="st1">
		<path d="M-370.5,167.7c-1.4,1.7-3.1,3-4.9,4.1c-1.8,1.1-3.8,2-5.9,2.7c-0.5,0.2-1,0.3-1.6,0.4c-0.5,0.1-1.1,0.3-1.6,0.3l-1.6,0.3
			l-1.6,0.1c-1.1,0.1-2.2,0-3.3,0c-1.1,0-2.2-0.2-3.3-0.3l0.8-4c0.9,0.2,1.9,0.5,2.8,0.6c1,0.1,1.9,0.3,2.9,0.3l1.5,0.1l1.5-0.1
			c0.5,0,1-0.1,1.5-0.1c0.5-0.1,1-0.1,1.5-0.2c1.9-0.3,3.8-0.9,5.6-1.8c1.8-0.8,3.6-1.9,5-3.2L-370.5,167.7z"/>
	</g>
	<g class="st1">
		<path d="M-446.3,192.2c0.7-3,1.6-5.8,2.5-8.7c1-2.8,2.1-5.7,3.5-8.4c1.3-2.7,2.9-5.4,4.6-8c1.8-2.5,3.9-4.9,6.3-7l2.7,3.4
			c-2.2,1.6-4.3,3.6-6.2,5.8c-1.8,2.2-3.5,4.6-5,7.1c-1.5,2.5-2.9,5.1-4.1,7.8c-1.2,2.7-2.4,5.4-3.3,8.2L-446.3,192.2z"/>
	</g>
	<g class="st1">
		<path d="M-511.5,265.5c-0.7,0-1.3,0-1.9,0c-0.6,0-1.2,0-1.7-0.1c-1.2-0.1-2.3-0.2-3.4-0.3c-2.3-0.3-4.5-0.7-6.7-1.3
			c-2.2-0.6-4.3-1.4-6.4-2.4c-2-1-3.9-2.3-5.6-3.7l0.6-0.8c1.9,0.9,3.8,1.7,5.9,2.1c2,0.4,4.1,0.7,6.1,0.7c2,0,4.1-0.1,6.1-0.3
			c1-0.1,2-0.3,3-0.5c0.5-0.1,1-0.2,1.5-0.3c0.5-0.1,1-0.2,1.3-0.4L-511.5,265.5z"/>
	</g>
	<g class="st1">
		<path d="M-478.3,265.5c-0.9-1.5-2.3-2.8-3.7-3.8c-1.5-1-3.1-1.8-4.8-2.5c-1.7-0.7-3.4-1.1-5.2-1.4c-0.9-0.1-1.8-0.3-2.7-0.4
			l-2.7-0.2l1.1-6.2l2.9,0.9c1,0.4,1.9,0.7,2.9,1.1c1.9,0.9,3.7,1.8,5.4,2.9c1.7,1.1,3.3,2.4,4.6,4c1.3,1.5,2.5,3.2,3.1,5.2
			L-478.3,265.5z"/>
	</g>
	<g class="st1">
		<path d="M-490.4,204.1c1.3,1.7,2.7,3.4,4.1,5c0.7,0.8,1.4,1.5,2.2,2.2c0.4,0.3,0.7,0.6,1.1,0.8c0.2,0.1,0.3,0.2,0.5,0.3
			c0.2,0.1,0.2,0,0.3,0l-2.6,4.8c-0.4-0.3-0.8-0.6-1-0.9c-0.2-0.3-0.5-0.6-0.7-0.8c-0.4-0.5-0.7-1.1-1-1.6c-0.6-1-1-2.1-1.5-3.1
			c-0.9-2.1-1.6-4.1-2.2-6.2L-490.4,204.1z"/>
	</g>
	<g class="st1">
		<path d="M-400.4,189.6c-3.4,5.5-7.7,10.4-12.4,14.9c-2.4,2.2-4.9,4.3-7.6,6.2c-2.7,1.9-5.6,3.6-8.7,4.9c-3.1,1.3-6.4,2.3-9.8,2.6
			c-0.8,0.1-1.7,0.1-2.6,0.1c-0.4,0-0.9,0-1.3,0c-0.4,0-0.9-0.1-1.3-0.1c-0.9-0.1-1.7-0.2-2.6-0.4l-1.3-0.3l-0.6-0.1l-0.6-0.2
			c-3.3-1-6.3-2.9-8.8-5.1c-2.6-2.1-4.6-4.8-6.3-7.5l0.8-0.6c4.6,4.4,9.6,8.1,15.4,9.5c2.8,0.7,5.8,0.8,8.7,0.5
			c2.9-0.4,5.8-1.1,8.6-2.3c5.6-2.4,10.8-5.8,15.7-9.7c4.9-3.9,9.5-8.3,13.8-13L-400.4,189.6z"/>
	</g>
	<g class="st1">
		<path d="M-359.3,208.8c1.1,1.4,1.9,2.6,2.7,4c0.8,1.4,1.4,2.8,2,4.3c0.6,1.5,0.9,3,1.2,4.5c0.3,1.5,0.3,3.1,0.2,4.6h-1
			c-0.2-1.4-0.4-2.9-0.9-4.2c-0.5-1.3-1.1-2.6-1.8-3.9c-0.7-1.2-1.5-2.4-2.4-3.5c-0.9-1.1-1.9-2.2-2.8-3L-359.3,208.8z"/>
	</g>
	<g class="st1">
		<path d="M-340.8,190.6c0.9-0.3,1.6-0.5,2.5-0.6c0.8-0.2,1.6-0.3,2.4-0.4c1.6-0.3,3.2-0.4,4.8-0.5c1.6-0.1,3.2-0.1,4.8,0.1
			c1.6,0.1,3.1,0.4,4.7,0.7l-0.1,1c-1.5,0.1-3,0.2-4.4,0.5c-1.4,0.3-2.9,0.7-4.3,1.1c-1.4,0.5-2.7,1-4.1,1.6c-0.7,0.3-1.3,0.6-1.9,1
			c-0.6,0.3-1.3,0.7-1.8,1L-340.8,190.6z"/>
	</g>
	<g class="st1">
		<path d="M-447.6,65.9c2.7,1.1,5.2,2.6,7.6,4.3c2.4,1.7,4.6,3.7,6.6,5.9c1,1.1,1.9,2.3,2.8,3.5c0.8,1.3,1.7,2.5,2.4,3.9
			c1.5,2.6,2.5,5.6,3.4,8.5l-5.5,1.1c-0.4-2.6-0.9-5.2-2-7.7c-0.4-1.3-1.1-2.5-1.6-3.7c-0.7-1.2-1.3-2.4-2.1-3.5
			c-1.5-2.3-3.3-4.4-5.3-6.3c-2-1.9-4.3-3.7-6.7-5.1L-447.6,65.9z"/>
	</g>
	<g class="st1">
		<path d="M-429.4,60.4c-0.3,3.2-0.6,6.3-1,9.5c-0.2,1.6-0.4,3.2-0.7,4.8c-0.3,1.6-0.5,3.2-1,4.8l-3.7-1.3c0.6-1.3,1.1-2.8,1.6-4.3
			c0.5-1.5,0.9-3,1.4-4.5c0.9-3,1.7-6.1,2.4-9.2L-429.4,60.4z"/>
	</g>
	<g class="st1">
		<path d="M-489.7,101.9c1.3,0.5,2.3,1.2,3.3,2c0.5,0.4,1,0.8,1.5,1.2c0.5,0.4,0.9,0.9,1.4,1.3c1.8,1.8,3.4,3.8,4.9,5.9
			c1.5,2.1,2.7,4.3,3.9,6.5l1.7,3.4l1.5,3.5l-4.2,1.4l-1-3.5l-1.2-3.4c-0.9-2.2-1.8-4.5-3-6.6c-1.1-2.1-2.4-4.2-3.9-6
			c-0.4-0.5-0.8-0.9-1.2-1.4c-0.4-0.4-0.8-0.9-1.3-1.3c-0.9-0.8-1.8-1.6-2.8-2.2L-489.7,101.9z"/>
	</g>
	<g class="st1">
		<path d="M-477.4,95.6c-0.6,1.3-0.9,2.9-1,4.5c-0.2,1.6-0.2,3.1-0.2,4.7c0,1.6,0.2,3.1,0.4,4.7l0.3,2.3l0.4,2.3l-2.7,0.4l-0.2-2.4
			l-0.1-2.4c0-1.6,0-3.3,0.1-4.9c0.1-1.6,0.3-3.3,0.6-4.9c0.3-1.6,0.7-3.2,1.6-4.8L-477.4,95.6z"/>
	</g>
	<g class="st1">
		<path d="M-428.2,135.7c-2.8-2.7-5.9-5.1-9.1-7.2c-1.6-1.1-3.3-2-4.9-2.9c-1.7-0.9-3.4-1.6-5.1-2.2l3-6c1.8,1.2,3.5,2.5,5.1,3.9
			c1.6,1.4,3,2.8,4.4,4.3c2.8,3,5.2,6.2,7.4,9.5L-428.2,135.7z"/>
	</g>
	<g class="st1">
		<path d="M-383.2,106.7c-2.5-2.2-5.1-4.3-7.8-6.2c-1.3-0.9-2.7-1.8-4.1-2.5c-1.3-0.7-2.8-1.3-3.8-1.4l2.2-6.5
			c2.2,1,3.5,2.3,4.9,3.6c1.3,1.3,2.5,2.6,3.6,4c2.2,2.7,4.1,5.5,5.9,8.4L-383.2,106.7z"/>
	</g>
	<g class="st1">
		<path d="M-548.5,235.9c-1.3-1.1-2.3-2.2-3.4-3.3c-0.5-0.6-1.1-1.1-1.6-1.7c-0.5-0.6-1-1.1-1.5-1.7c-2-2.4-3.8-4.8-5.4-7.5
			c-1.6-2.6-2.9-5.4-3.8-8.4c-0.9-3-1.3-6-1.1-9h1c0.3,2.9,1.3,5.5,2.5,8c1.3,2.5,3,4.7,4.8,6.8c1.8,2.1,3.9,4,6.1,5.8
			c0.5,0.4,1.1,0.9,1.6,1.3c0.6,0.4,1.1,0.8,1.7,1.2c1.1,0.8,2.3,1.6,3.4,2.2L-548.5,235.9z"/>
	</g>
	<g class="st1">
		<path d="M-496.4,322.5c-0.2-0.3-0.2-0.4-0.3-0.5l-0.2-0.4l-0.3-0.7c-0.2-0.4-0.3-0.8-0.4-1.2c-0.3-0.8-0.5-1.6-0.7-2.4
			c-0.4-1.6-0.6-3.2-0.7-4.8c-0.2-3.2,0.1-6.5,0.9-9.5c0.8-3.1,2.1-6,3.6-8.5c1.6-2.6,3.4-4.8,5.4-6.8c2-2,4.1-3.8,6.3-5.3
			c2.2-1.6,4.4-2.9,6.7-4.1c1.1-0.6,2.3-1.2,3.4-1.7l3.2-1.5l6.4-3c4.3-2,8.7-4,13.3-5.7c4.6-1.7,9.7-3.2,15.2-3.4
			c2.7-0.1,5.5,0.2,8.2,0.8c2.6,0.6,5.1,1.6,7.5,2.7c4.6,2.3,8.6,5.2,12.4,8.1l-3.4-0.4l0,0c5.4-2.3,10.6-3.8,15.4-5.9
			c4.7-2.1,8.9-4.9,11.6-8.9c2.8-4,4.1-9.1,4.5-14.4c0.4-5.3,0-10.9-0.7-16.4l1-0.2c2,5.3,3.5,10.8,3.8,16.6
			c0.2,2.9,0.1,5.9-0.4,8.9c-0.5,3-1.5,6-3.1,8.7c-1.6,2.7-3.6,5.2-6,7.2c-2.4,2-5,3.6-7.7,4.9c-5.3,2.7-10.9,4.2-15.8,6l0,0
			l-1.6,0.7l-1.8-1.1c-3.8-2.5-7.7-4.7-11.6-6.2c-3.9-1.5-7.8-2.1-11.6-1.5c-3.8,0.5-7.7,2-11.7,3.9c-3.9,1.9-7.9,4.1-11.9,6.4
			l-6,3.5l-3,1.8l-2.7,1.7c-3.5,2.3-6.6,4.9-8.9,7.8c-2.4,2.9-3.8,5.9-4.2,8.9c-0.2,1.5-0.2,2.9,0.1,4.4c0.1,0.7,0.3,1.4,0.5,2.1
			c0.1,0.3,0.2,0.6,0.4,0.9c0.1,0.1,0.1,0.3,0.2,0.4c0,0,0.1,0.1,0.1,0.1c0,0,0,0,0,0c0,0,0,0-0.1-0.2L-496.4,322.5z"/>
	</g>
	<g class="st1">
		<path d="M-379.5,257.4c1.7,0.2,3.2,0.4,4.8,0.5c1.5,0.2,3.1,0.3,4.6,0.5c3,0.2,6.1,0.3,9,0.2c3-0.1,5.9-0.5,8.7-1.2
			c2.8-0.7,5.4-1.8,7.6-3.4c2.3-1.6,4.1-3.6,5.6-6c1.4-2.4,2.5-5.1,3.2-8c1.4-5.8,1.7-12.1,1.6-18.5l1-0.2c1.9,6.2,2.7,12.7,2,19.5
			c-0.5,3.3-1.3,6.8-2.9,9.9c-0.4,0.8-0.9,1.6-1.3,2.3c-0.5,0.7-1,1.5-1.6,2.2c-0.6,0.7-1.2,1.3-1.9,2c-0.7,0.6-1.4,1.2-2.1,1.8
			c-2.9,2.2-6.2,3.8-9.5,4.7c-3.4,1-6.8,1.5-10.2,1.6c-3.4,0.2-6.7,0-10-0.4c-1.6-0.2-3.3-0.4-4.9-0.7c-1.6-0.3-3.2-0.6-4.6-0.9
			L-379.5,257.4z"/>
	</g>
	<g class="st1">
		<path d="M-332.3,234.8c2.7,0.1,5.2,0.2,7.8,0.2c2.5,0,5.1-0.1,7.5-0.5c2.5-0.3,4.9-0.9,7-1.8c2.2-0.9,4.1-2.2,5.3-3.9
			c1.3-1.7,1.8-3.8,1.8-6.1c-0.1-2.5-0.3-5.2-0.5-7.8c-0.2-2.6-0.5-5.2-0.9-7.7c-0.2-1.3-0.4-2.5-0.7-3.8c-0.1-0.6-0.3-1.2-0.4-1.9
			c-0.1-0.6-0.3-1.3-0.5-1.7l0,0l-0.7-1.9l2.1-0.6c5.7-1.7,11.8-3.9,18.4-4.2c3.3-0.1,6.7,0.2,9.9,1.6c3.2,1.3,6,3.5,8,6.1
			c2.1,2.6,3.5,5.6,4.5,8.6c1.1,3,1.7,6.1,2.2,9.2c1,6.2,1.1,12.4,0.9,18.6l-1,0c-0.5-6.1-1.1-12.2-2.5-18.1
			c-0.7-2.9-1.6-5.8-2.7-8.5c-1.1-2.7-2.6-5.3-4.4-7.4c-1.8-2.1-4.1-3.8-6.6-4.7c-2.5-0.9-5.4-1.2-8.2-1.1c-2.9,0.2-5.8,0.7-8.7,1.4
			c-2.9,0.7-5.8,1.6-8.9,2.3l1.4-2.6l0,0c0.2,0.8,0.4,1.4,0.5,2.1c0.1,0.7,0.3,1.3,0.4,2c0.2,1.3,0.4,2.7,0.6,4
			c0.4,2.6,0.7,5.3,0.9,7.9c0.3,2.7,0.5,5.2,0.7,8c0.1,1.5,0,3-0.4,4.5c-0.4,1.5-1,3-1.9,4.3c-1.8,2.6-4.4,4.4-7,5.6
			c-2.6,1.2-5.4,2-8.1,2.5c-2.7,0.5-5.4,0.8-8.2,1c-2.7,0.2-5.4,0.2-8,0.3V234.8z"/>
	</g>
	<g class="st1">
		<path d="M-327.7,160.9c2.1,0.6,3.9,1.7,5.7,3c1.7,1.3,3.2,2.8,4.6,4.4c2.8,3.2,5,6.9,7,10.6c1.9,3.7,3.6,7.6,5,11.6
			c1.4,4,2.6,8,3.5,12l-2.9,0.8c-0.6-2-1.1-3.9-1.8-5.9c-0.6-2-1.2-3.9-1.9-5.8c-1.3-3.9-2.8-7.7-4.6-11.3
			c-1.7-3.7-3.7-7.2-6.1-10.5c-1.2-1.7-2.5-3.1-4-4.5c-1.5-1.3-3.1-2.5-4.9-3.4L-327.7,160.9z"/>
	</g>
	<g class="st1">
		<path d="M-277.8,194.9c0.4-0.3,0.8-0.7,1.3-1.1c0.4-0.4,0.9-0.8,1.3-1.3c0.8-0.9,1.6-1.8,2.3-2.8c1.5-1.9,2.7-4,3.8-6.2
			c2.1-4.4,3.4-9.2,3.8-14.1c0.5-4.9,0-10-0.8-15c-0.9-5-2.3-9.9-4.1-14.8l0.9-0.4c2.5,4.6,4.6,9.4,6,14.5c1.4,5.1,2.2,10.5,2,15.9
			c-0.1,2.7-0.4,5.4-1.1,8.1c-0.6,2.6-1.5,5.3-2.7,7.7c-1.2,2.5-2.6,4.8-4.3,7c-0.9,1.1-1.8,2.1-2.8,3.1c-1,1-2,1.9-3.3,2.7
			L-277.8,194.9z"/>
	</g>
	<g class="st1">
		<path d="M-275.5,98.9c2.9,2,6,3.9,8.9,5.9c3,2,5.9,4.2,8.6,6.5c2.8,2.3,5.4,4.9,7.8,7.7c2.3,2.9,4.4,6,5.8,9.6
			c1.4,3.5,2.2,7.5,1.7,11.4c-0.4,3.9-1.8,7.6-3.7,10.9c-0.4,0.9-1,1.6-1.5,2.4c-0.5,0.8-1.1,1.6-1.7,2.3l-1.8,2.2l-2,2l-1,1l-1,0.9
			l-2.1,1.8c-1.4,1.2-2.9,2.2-4.4,3.3l-2.4-3.2c1.3-1.1,2.7-2.2,4-3.3l1.9-1.7l1-0.9l0.9-0.9l1.8-1.8l1.6-2c0.6-0.6,1-1.3,1.5-2
			c0.5-0.7,1-1.4,1.4-2.1c1.8-2.8,3-5.9,3.4-9.2c0.4-3.2,0-6.5-1.1-9.6c-1.1-3.1-2.8-6.1-4.9-8.9c-2.1-2.8-4.4-5.3-7-7.8
			c-2.5-2.4-5.3-4.7-8-6.9c-2.8-2.2-5.7-4.3-8.4-6.7L-275.5,98.9z"/>
	</g>
	<g class="st1">
		<path d="M-176,103.8c-3.6-0.9-7.5-0.7-10.9,1c-3.5,1.6-6.5,4.5-8.9,8c-0.7,0.8-1.1,1.8-1.7,2.7l-0.8,1.4l-0.7,1.5
			c-0.4,1-1,2-1.3,3l-1.1,3.2l-0.3,0.8l-0.2,0.8l-0.5,1.6c-0.3,1.1-0.6,2.2-0.9,3.3c-0.4,2.2-1,4.4-1.4,6.7
			c-0.8,4.6-1.6,9.2-2.3,13.8c-0.8,4.6-1.5,9.3-2.4,13.9c-0.2,1.2-0.5,2.3-0.8,3.5c-0.3,1.2-0.6,2.3-1,3.5c-0.4,1.1-0.8,2.3-1.4,3.4
			c-0.3,0.5-0.5,1.1-0.8,1.6l-1,1.6c-1.4,2-3.1,3.8-5.1,5.2c-0.9,0.8-2,1.3-3,1.9c-1,0.6-2.1,1.1-3.2,1.6l-0.4-0.9
			c4.1-2.2,7.9-5,10.1-8.8c2.2-3.9,3.1-8.4,3.7-13c0.6-4.6,1-9.2,1.4-13.9c0.4-4.7,0.9-9.3,1.4-14c0.2-2.3,0.6-4.7,0.9-7.1
			c0.2-1.2,0.5-2.4,0.7-3.6l0.4-1.8l0.2-0.9l0.2-0.9l1-3.5c0.3-1.2,0.8-2.3,1.2-3.5l0.7-1.7l0.8-1.7c0.6-1.1,1-2.3,1.8-3.4
			c2.5-4.4,6.2-8.6,11.1-11.3c4.9-2.7,10.8-3.6,16.4-2.6L-176,103.8z"/>
	</g>
	<g class="st1">
		<path d="M-208.8,75.9c-1.1-1.3-2.5-2.7-3.8-3.9c-1.4-1.3-2.8-2.5-4.3-3.6c-2.9-2.3-6.1-4.4-9.3-6.1c-6.5-3.4-13.8-5.3-21-4.5
			c-1.8,0.2-3.5,0.5-5.3,1c-1.8,0.5-3.6,1.1-5.3,1.7c-3.5,1.3-6.8,2.9-9.7,5c-1.5,1.1-2.8,2.2-4.2,3.5c-1.4,1.3-2.8,2.7-4.7,4
			c-1.8,1.3-3.9,2.3-6,2.8c-2.1,0.6-4.2,0.8-6.2,1l-0.7,0l-0.6-0.3l0,0c-5.7-3-11.4-5.8-17.3-8.2c-5.9-2.3-12-4.3-18.1-5.2
			c-3-0.4-6.1-0.6-9-0.2c-2.9,0.4-5.6,1.4-7.8,3.1c-1.1,0.8-2,1.9-2.8,3c-0.8,1.1-1.2,2.2-1.1,2.9c0,0.7,0.7,1.7,1.7,2.6
			c1,0.9,2.3,1.8,3.7,2.7c2.7,1.7,5.6,3.5,8.2,5.6c2.7,2.2,5.1,4.9,6.7,8.1c0.8,1.6,1.4,3.4,1.7,5.1c0.3,1.8,0.4,3.5,0.3,5.3
			c-0.2,3.5-1,6.8-2.1,10c-1.1,3.2-2.6,6.3-4.8,9.1c-1.1,1.4-2.4,2.6-4,3.5c-1.5,0.9-3.3,1.6-5,1.9c-3.6,0.6-7-0.3-10.1-1.7
			c-3.1-1.4-5.8-3.2-8.3-5.5l0.7-0.8c2.5,1.9,5.4,3.5,8.3,4.5c2.9,1,6.1,1.6,9,0.9c2.9-0.6,5.3-2.4,7.1-4.8c1.8-2.4,3-5.3,3.9-8.3
			c0.9-3,1.5-6.1,1.6-9.1c0.1-3-0.5-5.9-1.8-8.5c-1.3-2.6-3.4-4.8-5.7-6.6c-2.4-1.9-5.1-3.5-7.9-5.2c-1.4-0.9-2.9-1.8-4.3-3
			c-0.7-0.6-1.4-1.3-2-2.2c-0.6-0.9-1.2-2-1.3-3.2c-0.2-1.2,0-2.4,0.4-3.5c0.4-1,0.8-1.9,1.4-2.7c1-1.6,2.3-3,3.8-4.1
			c2.9-2.4,6.6-3.6,10.1-4.1c3.5-0.5,7-0.4,10.4,0.1c6.8,0.9,13.2,3,19.3,5.4c6.1,2.5,12.1,5.4,17.8,8.6l0,0l-1.3-0.3
			c3.7-0.2,7-0.9,9.7-2.9c1.4-1,2.7-2.2,4.1-3.6c1.4-1.3,3-2.7,4.7-3.9c3.4-2.4,7.1-4.2,10.9-5.6c1.9-0.7,3.8-1.3,5.7-1.9
			c2-0.6,4-1,6.1-1.2c4.1-0.5,8.4-0.2,12.4,0.8c4,0.9,7.9,2.4,11.5,4.3c3.6,1.9,7,4.1,10.1,6.6c1.6,1.2,3.1,2.5,4.6,3.9
			c1.5,1.4,2.9,2.8,4.3,4.4L-208.8,75.9z"/>
	</g>
	<g class="st1">
		<path d="M-317.8,36.8c11.8-0.1,23.6-0.1,35.5,1.4c5.9,0.8,11.9,2,17.6,4.4c2.9,1.2,5.7,2.8,8.2,4.8c2.5,2.1,4.6,4.8,5.9,7.9
			l-4.6,1.9c-1-2.3-2.5-4.4-4.5-6.2c-2-1.7-4.3-3.2-6.9-4.4c-5.1-2.4-10.7-3.8-16.4-5c-5.7-1.1-11.5-1.8-17.4-2.4
			c-5.8-0.6-11.7-1.1-17.6-1.5L-317.8,36.8z"/>
	</g>
	<g class="st1">
		<path class="st2" d="M-298.8,106.3"/>
	</g>
	<g class="st1">
		<path d="M-287.2,73.1c0.8,1.3,1.4,2.4,1.9,3.6c0.5,1.2,1,2.5,1.3,3.8c0.7,2.6,1.1,5.3,1,7.9c-0.1,2.7-0.7,5.4-1.8,7.8
			c-1.1,2.4-2.6,4.7-4.3,6.6c-3.6,3.8-7.9,6.7-12.5,8.8c-4.6,2.2-9.3,3.8-14.2,5.1l-0.3-1c4.7-1.6,9.3-3.4,13.6-5.8
			c4.3-2.3,8.3-5.3,11.3-8.9c3-3.7,4.8-8.2,4.7-12.8c0-2.3-0.5-4.6-1.2-6.8c-0.4-1.1-0.8-2.2-1.3-3.2c-0.5-1-1.1-2.1-1.7-2.9
			L-287.2,73.1z"/>
	</g>
	<g class="st1">
		<path d="M-311,142.9c3.8-1.7,7.2-4.2,10.4-6.9c3.2-2.7,6.1-5.8,8.4-9.2c2.3-3.4,4-7.3,3.6-11c-0.2-1.9-0.9-3.6-2-5.1
			c-1.1-1.5-2.6-2.8-4.3-3.8l2-2.9c1.8,1.4,3.6,2.9,4.9,4.9c1.3,2,2.2,4.3,2.3,6.7c0.1,2.4-0.4,4.7-1.3,6.8c-0.9,2.1-2.1,4-3.4,5.7
			c-2.7,3.5-5.8,6.5-9.2,9.1c-3.4,2.6-7,5-11.1,6.6L-311,142.9z"/>
	</g>
	<g class="st1">
		<path d="M-339.6,63.5c-2.5-2.2-4.6-4.4-6.7-6.9c-2-2.5-3.8-5.1-5.2-8c-1.4-2.9-2.4-6.1-2.4-9.3c0-1.6,0.2-3.3,0.6-4.8
			c0.5-1.5,1.2-3,2-4.3l0.9,0.5c-0.7,1.3-1.2,2.7-1.5,4.2c-0.3,1.4-0.3,2.9-0.2,4.4c0.3,2.9,1.5,5.7,2.9,8.2c1.5,2.5,3.4,4.9,5.4,7
			c2.1,2.1,4.4,4.2,6.7,5.8L-339.6,63.5z"/>
	</g>
	<g class="st1">
		<path d="M-278.6,42.8c-1.5-0.3-3.2-0.6-4.8-0.8c-1.6-0.2-3.3-0.3-4.9-0.2c-1.6,0.1-3.2,0.3-4.7,0.8c-1.5,0.5-2.8,1.4-3.3,2.9
			l-1-0.3c0.2-0.9,0.7-1.8,1.3-2.5c0.6-0.7,1.4-1.2,2.2-1.7c1.6-0.9,3.4-1.3,5.1-1.7c1.7-0.3,3.5-0.5,5.3-0.6
			c1.8-0.1,3.5-0.1,5.3,0.1L-278.6,42.8z"/>
	</g>
	<g class="st1">
		<path d="M-219.1,203.9c2.1-1.5,4.3-2.8,6.7-3.9c2.3-1.1,4.8-2.1,7.3-2.8c2.5-0.7,5.2-1.2,8-1.2c2.8,0,5.6,0.4,8.3,1.5
			c2.7,1.1,5.2,2.7,7.2,4.8c0.6,0.5,1,1.1,1.5,1.6c0.5,0.5,0.9,1.1,1.3,1.7l1.2,1.8l1,1.8c2.7,5,4.2,10.3,5.3,15.5l-8.9,1.2
			c-0.3-4.8-1-9.5-2.7-13.7c-1.6-4.2-4.2-8-8-10.1c-3.8-2.2-8.7-2.6-13.5-1.9c-2.4,0.3-4.8,0.9-7.2,1.7c-2.4,0.8-4.7,1.8-6.9,2.9
			L-219.1,203.9z"/>
	</g>
	<g class="st1">
		<path d="M-210,231.9c2.9-1,6-1.5,9.2-1.3c3.1,0.2,6.3,1,9.1,2.6c2.8,1.6,5.3,3.8,7.3,6.4c2,2.6,3.6,5.4,4.8,8.3l-5.5,1.9
			c-0.7-2.7-1.7-5.3-3.1-7.6c-1.4-2.4-3.1-4.5-5.3-6.1c-2.2-1.7-4.8-2.7-7.6-3.3c-2.8-0.5-5.8-0.5-8.6,0.1L-210,231.9z"/>
	</g>
	<g class="st1">
		<path d="M-201.6,124.5c-2.3,3.2-4.6,6.1-7.1,9.1c-2.5,2.9-5,5.8-7.7,8.5c-2.7,2.7-5.5,5.3-8.5,7.7c-3,2.3-6.2,4.5-9.7,6.1
			l-0.4-0.9c3.3-1.8,6.2-4.1,9-6.6c2.8-2.5,5.3-5.2,7.8-8c2.5-2.8,4.7-5.8,7-8.8c2.2-3,4.3-6.1,6.2-9.3L-201.6,124.5z"/>
	</g>
	<g class="st1">
		<path d="M-214.7,292.2c-2.1-1.2-3.9-2.4-5.8-3.6c-1.8-1.3-3.6-2.6-5.4-4c-3.5-2.8-6.9-5.9-9.8-9.4c-1.5-1.8-2.8-3.7-4-5.9
			c-1.1-2.1-2-4.5-2.4-7c-0.4-2.5-0.2-5.2,0.6-7.7c0.7-2.3,1.7-4.4,2.9-6.3c2.3-3.9,5-7.3,7.1-10.7c1.1-1.7,2-3.5,2.6-5.3
			c0.6-1.8,0.9-3.8,0.8-5.7c-0.2-3.9-1.8-7.9-3.8-11.5c-2-3.7-4.6-7.1-7.3-10.4l0.7-0.7c3,3.1,5.8,6.3,8.2,10
			c2.4,3.6,4.5,7.6,5.1,12.3c0.3,2.3,0.2,4.7-0.4,6.9c-0.6,2.3-1.5,4.4-2.5,6.4c-2.1,4-4.5,7.5-6.2,11.1c-0.9,1.8-1.6,3.7-2,5.5
			c-0.4,1.7-0.4,3.3,0,5c0.8,3.3,3,6.5,5.8,9.3c2.7,2.8,5.9,5.3,9.3,7.6c1.7,1.1,3.4,2.2,5.2,3.2c1.7,1,3.6,2,5.3,2.8L-214.7,292.2z
			"/>
	</g>
	<g class="st1">
		<path d="M-279.5,248.7c-1.9,2.6-3.3,5.6-4.3,8.6c-1,3-1.5,6.2-1.5,9.3c0,6.3,2,12.3,5.1,17.6c3.2,5.3,7.4,10,12.1,14.1
			c4.7,4.1,9.9,7.8,15.3,11.1l-6.7,9.5c-5.3-4.3-10.4-9-15-14.3c-4.6-5.2-8.6-11.1-11.4-17.6c-1.4-3.3-2.4-6.7-2.9-10.2
			c-0.6-3.5-0.6-7.1-0.1-10.5c0.5-3.5,1.5-6.8,2.9-9.9c1.5-3.1,3.3-6,5.7-8.4L-279.5,248.7z"/>
	</g>
	<g class="st1">
		<path d="M-392.1,319c0.4,0.1,1.1,0.2,1.7,0.2l1.8,0.2c1.2,0.1,2.5,0.2,3.7,0.3c2.5,0.2,5,0.3,7.5,0.3c5,0.1,10-0.2,14.9-0.8
			c4.9-0.6,9.7-1.7,14.1-3.3c2.2-0.8,4.4-1.8,6.4-3c1-0.6,1.9-1.3,2.9-1.9c0.9-0.7,1.8-1.4,2.6-2.2c0.9-0.8,1.5-1.7,2.3-2.5
			c0.7-0.9,1.3-1.8,2-2.9c1.3-2.1,2.5-4.3,3.5-6.6c2.1-4.6,3.6-9.4,4.6-14.4c1.1-5,1.7-10.2,2.9-15.5c0.6-2.6,1.5-5.3,3-7.6
			c0.7-1.2,1.7-2.2,2.7-3.1c1-0.9,2.2-1.6,3.4-2.3l0.5,0.9c-2.1,1.4-3.9,3.3-5,5.5c-1.1,2.2-1.7,4.7-2,7.2
			c-0.6,5.1-0.6,10.3-1.2,15.7c-0.5,5.3-1.6,10.7-3.3,16c-0.8,2.6-1.9,5.2-3.1,7.7c-0.5,1.2-1.3,2.5-2,3.8c-0.8,1.2-1.6,2.5-2.6,3.6
			c-0.9,1.2-2,2.2-3,3.2c-1.1,1-2.2,2-3.4,2.8c-2.3,1.8-4.8,3.2-7.4,4.5c-5.1,2.6-10.5,4.3-15.9,5.7c-5.4,1.3-10.9,2.2-16.4,2.7
			c-2.7,0.3-5.5,0.4-8.3,0.5c-1.4,0-2.8,0.1-4.2,0.1l-2.1,0c-0.7,0-1.4,0-2.2-0.1L-392.1,319z"/>
	</g>
	<g class="st1">
		<path d="M-344,314.7C-344,314.7-344,314.8-344,314.7L-344,314.7c0-0.1,0-0.1-0.1-0.2c-0.1-0.2-0.1-0.3-0.2-0.5
			c-0.2-0.4-0.3-0.7-0.5-1.1l-0.3-0.6l-0.4-0.6l-0.4-0.6c-0.1-0.2-0.3-0.3-0.5-0.5c-0.6-0.7-1.4-1.4-2.1-2c-0.4-0.3-0.8-0.6-1.2-0.9
			c-0.4-0.3-0.8-0.6-1.3-0.9c-3.5-2.2-7.7-3.7-12-4.7l-1.6-0.4c-0.5-0.1-1.1-0.2-1.6-0.3l-3.3-0.6c-2.2-0.3-4.5-0.5-6.7-0.8
			l-6.8-0.4l-7-0.3c-9.3-0.5-18.6-1.6-27.8-3.5c-9.1-1.9-18.2-4.6-26.4-9.1l0.4-0.9c8.3,4,17.3,6.1,26.4,7.4
			c9.1,1.3,18.3,1.9,27.4,1.8l6.9-0.1l7.1,0c2.4,0.1,4.7,0.2,7.1,0.4l3.6,0.4c0.6,0.1,1.2,0.1,1.8,0.2l1.8,0.4
			c4.7,0.8,9.5,2.3,14,4.7c0.6,0.3,1.1,0.7,1.7,1c0.5,0.4,1.1,0.7,1.6,1.1c1,0.8,2.1,1.6,3,2.6c0.2,0.2,0.5,0.5,0.7,0.7l0.7,0.8
			l0.7,0.8l0.6,0.9c0.4,0.6,0.7,1.3,1.1,1.9c0.2,0.3,0.3,0.7,0.4,1.1c0.1,0.2,0.1,0.4,0.2,0.6l0.1,0.3c0,0.1,0.1,0.3,0.1,0.5
			L-344,314.7z"/>
	</g>
	<g class="st1">
		<path d="M-282.5,287.6c0.1-0.2,0.4-0.5,0.6-0.7c0.2-0.3,0.4-0.6,0.7-0.9c0.4-0.6,0.9-1.2,1.3-1.8c0.8-1.2,1.6-2.5,2.4-3.8
			c1.5-2.6,2.8-5.4,3.8-8.3c2.1-5.7,3.3-11.8,3.5-18c0.1-1.5,0-3.1-0.1-4.6c-0.1-1.5-0.2-3.1-0.5-4.6c-0.2-1.5-0.5-3.1-0.9-4.6
			c-0.2-0.8-0.4-1.5-0.6-2.3c-0.2-0.8-0.4-1.5-0.7-2.3c-1.9-6-4.7-11.7-8.2-17.1l0.8-0.6c4,5.1,7.4,10.7,10,16.7
			c0.4,0.7,0.6,1.5,0.9,2.3c0.3,0.8,0.6,1.5,0.8,2.3c0.5,1.6,1,3.2,1.4,4.8c0.4,1.6,0.7,3.2,1,4.9c0.2,1.7,0.5,3.3,0.5,5
			c0.5,6.7-0.2,13.5-2,20c-0.9,3.3-2,6.5-3.4,9.6c-0.7,1.6-1.4,3.1-2.3,4.6c-0.4,0.8-0.8,1.5-1.3,2.3c-0.2,0.4-0.5,0.7-0.7,1.1
			c-0.3,0.4-0.5,0.7-0.8,1.2L-282.5,287.6z"/>
	</g>
	<g class="st1">
		<path d="M-186.5,205.6c-1-1.7-1.7-3.3-2.4-5c-0.7-1.7-1.3-3.4-1.9-5.1c-1.1-3.5-1.8-7.1-2-10.7c-0.1-1.8,0-3.7,0.2-5.5
			c0.3-1.8,0.7-3.6,1.3-5.3c1.3-3.4,3.4-6.5,6-8.9l0.7,0.7c-2.3,2.6-4,5.6-4.8,8.8c-0.4,1.6-0.6,3.3-0.7,4.9c0,1.7,0.1,3.3,0.3,5
			c0.5,3.3,1.5,6.5,2.8,9.6c0.7,1.5,1.4,3.1,2.2,4.5c0.8,1.4,1.7,3,2.6,4.2L-186.5,205.6z"/>
	</g>
	<g class="st1">
		<path d="M-374.7,298.5c-1.5-0.5-2.9-1.2-4.2-2c-1.3-0.8-2.5-1.8-3.6-3c-1-1.2-1.8-2.8-2.1-4.4c-0.2-1.7,0.1-3.3,0.8-4.8
			c1.3-2.8,3.2-5.2,5.6-7c1.2-0.9,2.5-1.6,3.9-2.2c1.4-0.6,2.8-1,4.3-1.2l0.1,1c-2.7,0.5-5.4,1.8-7.5,3.5c-2.1,1.7-3.8,4.1-4.8,6.6
			c-0.5,1.2-0.7,2.5-0.4,3.7c0.2,1.2,0.8,2.3,1.7,3.2c1.8,1.9,4.4,3.2,6.8,4L-374.7,298.5z"/>
	</g>
	<g class="st1">
		<path d="M-329,298.1c-0.1,0.1,0.1,0,0.1-0.1c0.1-0.1,0.1-0.2,0.2-0.4c0.1-0.3,0.2-0.6,0.3-0.9c0.2-0.6,0.3-1.3,0.4-2.1
			c0.1-1.5,0-3-0.4-4.6c-0.2-0.8-0.5-1.6-0.7-2.4c-0.3-0.8-0.6-1.6-1-2.3c-0.4-0.8-0.7-1.5-1.1-2.3l-1.3-2.3
			c-1.9-3.2-3.3-7-3.4-10.9c0.1-3.9,1.8-7.7,4.8-10l0.6,0.8c-1.2,1.2-2.1,2.7-2.6,4.3c-0.5,1.6-0.7,3.3-0.6,4.9c0.4,3.3,2,6.4,4,9
			c2.2,2.9,4.4,6.1,5.7,9.8c0.7,1.8,1.2,3.9,1.3,6c0,1.1,0,2.2-0.2,3.3c-0.1,0.6-0.2,1.1-0.4,1.7c-0.1,0.3-0.2,0.6-0.3,0.9
			c-0.2,0.3-0.2,0.5-0.6,1L-329,298.1z"/>
	</g>
	<g class="st1">
		<path d="M-352.4,273.2c1.2,2.7,3.5,4.9,6.1,6c1.3,0.5,2.7,0.8,4.2,0.8c0.7,0,1.4,0,2.1-0.1l1.1-0.2c0.4,0,0.9-0.1,1.3-0.1
			c1.7-0.1,3.6,0,5.3,0.6c1.8,0.6,3.4,1.5,4.8,2.6c1.4,1.1,2.6,2.5,3.7,3.9c0.5,0.7,1,1.5,1.5,2.2c0.2,0.4,0.4,0.8,0.6,1.2
			c0.2,0.4,0.4,0.8,0.6,1.4l-6.6,1.9c0-0.2-0.1-0.5-0.2-0.8c-0.1-0.3-0.2-0.6-0.3-0.9c-0.2-0.6-0.4-1.3-0.7-1.9
			c-0.6-1.2-1.3-2.3-2.1-3.3c-1.7-2-4-3.2-6.7-3.5c-0.3,0-0.7,0-1-0.1l-1.2,0c-0.8,0-1.7-0.1-2.5-0.3c-1.7-0.3-3.3-0.9-4.8-1.7
			c-1.5-0.8-2.8-1.9-3.8-3.2c-1-1.3-1.8-2.7-2.4-4.3L-352.4,273.2z"/>
	</g>
	<g class="st1">
		<path d="M-91.8,642.5c-1.1-2.1-2.4-4.1-3.7-6.1c-1.4-2-2.8-3.9-4.3-5.7c-3-3.6-6.3-7.1-9.8-10.2c-6.9-6.3-14.7-11.5-22.9-15.9
			c-4.1-2.2-8.3-4-12.6-5.8l-3.2-1.2l-1.6-0.6l-1.6-0.5l-3.3-1.1l-3.3-1c-8.9-2.5-17.9-4.3-27.1-5.4l1.5,0.1l-2.3,0l-2.2,0
			c-1.4,0-2.8-0.1-4.3-0.1c-2.8-0.1-5.6-0.3-8.4-0.6c-5.6-0.5-11.2-1.3-16.7-2.3c-5.5-1-11-2.4-16.5-3.9c-5.5-1.6-10.9-3.4-16.2-5.7
			c-5.3-2.2-10.5-4.7-15.6-7.6c-5.1-2.9-10-6.2-14.6-9.8c-9.3-7.3-17.7-16-24.2-26.1l20.4-13.6c5.3,7.7,11.6,14.7,18.9,20.8
			c3.6,3,7.5,5.8,11.6,8.4c4.1,2.6,8.3,4.9,12.8,7.1c2.2,1.1,4.5,2.1,6.7,3c2.3,1,4.6,1.9,6.9,2.7c4.7,1.7,9.4,3.2,14.3,4.5
			c4.8,1.3,9.8,2.4,14.7,3.3c2.5,0.4,5,0.8,7.5,1.2c1.2,0.2,2.5,0.3,3.7,0.4l3.5,0.3l1.5,0.1c9.9,2.2,19.6,5.2,29,9.1l3.5,1.5
			l3.4,1.6l1.7,0.8l1.7,0.9l3.4,1.8c4.4,2.5,8.7,5.1,12.8,8.1c4.1,3,8,6.1,11.7,9.6c3.7,3.5,7.1,7.2,10.2,11.1
			c3.1,3.9,5.9,8.1,8.3,12.4c2.4,4.3,4.5,8.8,5.8,13.6L-91.8,642.5z"/>
	</g>
	<g class="st1">
		<path d="M-360,544.2c-0.2,0.1-0.5,0.5-0.8,0.7l-0.9,0.9c-0.6,0.6-1.2,1.2-1.8,1.8c-1.2,1.2-2.3,2.6-3.3,3.9
			c-2.1,2.7-3.9,5.5-5.2,8.5c-1.3,2.9-2.1,6-2.2,8.9c0,1.5,0.2,2.9,0.6,4.4c0.4,1.5,1.1,3.1,1.9,4.6c1.5,3.1,3.6,6.1,5.8,9
			c2.2,3,4.6,5.8,7,8.8c2.4,2.9,4.8,5.8,7.1,9c1.1,1.6,2.2,3.2,3.1,4.9c0.9,1.7,1.6,3.7,1.5,5.7h-1c-0.2-1.7-1-3.4-2-4.8
			c-1-1.5-2.2-2.9-3.5-4.2c-2.5-2.7-5.3-5.2-8.1-7.7c-2.8-2.5-5.6-5.1-8.3-7.9c-2.7-2.7-5.4-5.7-7.7-9c-1.2-1.7-2.3-3.5-3.2-5.5
			c-0.9-2-1.6-4.3-1.9-6.5c-0.7-4.6,0-9.1,1.2-13.2c1.2-4.2,3-8,5-11.6c1-1.8,2.1-3.5,3.3-5.2c0.6-0.9,1.2-1.7,1.8-2.5l1-1.2
			c0.4-0.4,0.6-0.8,1.1-1.3L-360,544.2z"/>
	</g>
	<g class="st1">
		<path d="M-282.7,528.8c0.5,0.5,0.8,0.7,1.1,1l0.9,0.9c0.6,0.6,1.1,1.2,1.6,1.8c1,1.2,2,2.4,2.9,3.7c1.8,2.5,3.5,5.2,4.9,7.9
			c2.8,5.5,4.7,11.6,5.4,17.7c0.7,6.2,0.2,12.4-1.3,18.2c-1.5,5.8-3.9,11.2-6.8,16.1c-1.5,2.5-3,4.8-4.7,7.1l-4.8,6.5l-1.2,1.6
			l-1.1,1.6l-2.2,3.3c-0.8,1.1-1.4,2.2-2.1,3.4l-2,3.4c-2.4,4.6-4.7,9.4-5.8,14.5l-0.4,1.9c-0.1,0.6-0.1,1.3-0.2,1.9
			c-0.2,1.3-0.1,2.6,0,3.8l0.3,1.9c0.2,0.6,0.3,1.2,0.6,1.8c0.5,1.1,1.2,2.3,2.1,3l-0.5,0.9c-0.7-0.4-1.2-0.9-1.7-1.5
			c-0.5-0.5-0.9-1.1-1.2-1.8c-0.4-0.6-0.6-1.3-0.9-1.9l-0.6-2.1c-0.2-1.4-0.5-2.8-0.5-4.2c0-0.7-0.1-1.4,0-2.1l0.2-2.1
			c0.6-5.6,2.3-10.9,4.3-16.1l1.7-3.8c0.5-1.3,1.1-2.6,1.7-3.8l1.9-3.7l0.9-1.8l1-1.8l4-7.1c1.3-2.2,2.4-4.5,3.5-6.8
			c4.1-9.3,5.6-19.2,3.5-28.2c-1.1-4.5-3-8.7-5.6-12.5c-1.3-1.9-2.7-3.7-4.3-5.4c-0.8-0.8-1.6-1.6-2.4-2.4c-0.4-0.4-0.8-0.7-1.2-1.1
			l-0.6-0.5c-0.2-0.1-0.5-0.3-0.4-0.3L-282.7,528.8z"/>
	</g>
	<g class="st1">
		<path d="M-421.9,565c-0.4,0.3-1.1,0.7-1.6,1c-0.6,0.4-1.1,0.8-1.7,1.2c-1.1,0.8-2.3,1.6-3.4,2.5c-2.2,1.7-4.3,3.6-6.4,5.5
			c-4,3.9-7.6,8.2-10.5,12.9c-2.8,4.7-4.8,9.8-5.4,15.2c-0.4,2.7-0.3,5.4,0,8.1l0.3,2c0.1,0.7,0.3,1.3,0.5,2
			c0.3,1.3,0.8,2.6,1.2,3.9c0.5,1.3,1.1,2.6,1.6,3.9l1.9,4.1c1.3,2.7,2.5,5.4,3.8,8.2c2.4,5.5,4.8,11,6.8,16.7
			c2,5.7,3.8,11.5,4.6,17.6c0.9,6,0.1,12.4-2.2,17.9l-0.9-0.4c1.9-5.6,2.2-11.5,1-17.2c-1.1-5.7-3.2-11.2-5.6-16.6
			c-2.4-5.4-5.1-10.6-7.9-15.9c-1.4-2.6-2.8-5.2-4.3-7.8l-2.2-3.9c-0.7-1.4-1.5-2.8-2.1-4.2c-0.6-1.5-1.3-2.9-1.7-4.5
			c-0.2-0.8-0.5-1.5-0.7-2.3l-0.5-2.4c-0.6-3.2-0.9-6.5-0.7-9.7c0.3-6.6,2.3-12.9,5.2-18.7c2.9-5.7,6.7-10.9,10.9-15.6
			c2.1-2.3,4.3-4.6,6.7-6.7c1.2-1.1,2.4-2.1,3.6-3.1c0.6-0.5,1.2-1,1.9-1.5c0.7-0.5,1.2-0.9,2-1.5L-421.9,565z"/>
	</g>
	<g class="st1">
		<path d="M-218.3,650.3c0-8.1-1.2-16.1-3.8-23.6c-0.6-1.9-1.3-3.7-2.1-5.5c-0.8-1.8-1.6-3.6-2.5-5.3c-1.8-3.4-3.9-6.7-6.2-9.7
			l-1.8-2.2l-1.9-2c-0.7-0.6-1.3-1.3-2-1.8l-1-0.8l-0.5-0.4l-0.7-0.7c-3.9-3.5-6.3-7.6-8.3-11.6c-2-4.1-3.5-8.2-4.7-12.3
			c-0.6-2.1-1.2-4.2-1.7-6.3c-0.2-1.1-0.5-2.1-0.7-3.2c-0.2-1.1-0.4-2.1-0.6-3.3l15.2-1.5c0,0.8,0.1,1.8,0.1,2.7
			c0.1,0.9,0.1,1.9,0.2,2.8c0.2,1.9,0.4,3.8,0.7,5.7c0.6,3.8,1.3,7.5,2.4,10.9c1.1,3.4,2.5,6.7,4.4,9l0.3,0.4l0.6,0.6l1.2,1.3
			c0.8,0.9,1.4,1.8,2.1,2.6c0.7,0.9,1.3,1.8,1.9,2.7l1.7,2.8c2.2,3.8,3.9,7.7,5.3,11.7c0.7,2,1.3,4,1.9,6.1c0.5,2.1,1,4.1,1.3,6.2
			c1.5,8.2,1.5,16.6,0.3,24.7L-218.3,650.3z"/>
	</g>
	<g class="st1">
		<path d="M-164.6,580.8c0.6,0.9,1,1.6,1.5,2.4c0.5,0.8,0.9,1.6,1.3,2.4c0.9,1.6,1.7,3.2,2.4,4.8c1.5,3.2,2.9,6.6,4.1,10
			c1.1,3.4,2,6.9,2.6,10.4c0.5,3.5,0.7,7.1,0.3,10.6h-1c-0.5-3.4-1.4-6.6-2.6-9.7c-1.3-3.1-2.8-6-4.6-8.8c-1.8-2.8-3.7-5.5-5.8-8.1
			c-1-1.3-2.1-2.5-3.2-3.8c-0.5-0.6-1.1-1.2-1.7-1.8c-0.5-0.6-1.1-1.2-1.6-1.6L-164.6,580.8z"/>
	</g>
	<g class="st1">
		<path d="M-489.1,578.9c-3.5,2.1-7.1,4.5-10.6,6.9c-3.5,2.4-6.9,4.8-10.3,7.4c-3.3,2.6-6.6,5.3-9.6,8.2c-1.5,1.5-2.9,3-4.2,4.6
			c-1.2,1.6-2.3,3.4-2.6,5.4h-1c-0.1-2.4,0.8-4.5,1.8-6.5c1-2,2.2-3.8,3.5-5.6c2.6-3.6,5.4-6.9,8.3-10.1c2.9-3.2,6-6.3,9.1-9.4
			c3.1-3,6.3-6,9.6-8.9L-489.1,578.9z"/>
	</g>
	<g class="st1">
		<path d="M-454.9,601.4c1.6,2.8,2.7,5.8,3.4,8.9c0.7,3.1,1.1,6.3,1,9.6c-0.1,3.2-0.4,6.5-1.3,9.7c-0.8,3.2-2.4,6.3-4.5,9
			c-2.1,2.7-5,4.8-8.1,6.1c-0.8,0.4-1.4,0.6-2.2,0.9l-2.1,0.9c-1.3,0.7-2.7,1.2-4,2c-2.6,1.4-5.1,3.1-7.2,5.1c-1,1.1-2,2.2-2.6,3.5
			c-0.2,0.3-0.3,0.7-0.4,1c-0.1,0.3-0.2,0.7-0.3,1c-0.2,0.7-0.2,1.4-0.1,2l-0.9,0.3c-0.5-1.7-0.3-3.4,0.3-5c0.6-1.6,1.5-3,2.5-4.3
			c2.1-2.5,4.6-4.6,7.3-6.3c0.7-0.5,1.3-0.9,2-1.3c0.7-0.4,1.4-0.8,2.1-1.2l2.1-1.1c0.7-0.3,1.5-0.7,2.1-1c2.5-1.3,4.7-3,6.4-5.3
			c3.3-4.5,4.6-10.4,4.6-16.2c0.1-5.9-0.5-11.9-0.8-18.1L-454.9,601.4z"/>
	</g>
	<g class="st1">
		<path d="M-220.1,616.8c1.1,2.4,2.3,4.8,3.5,7.2c1.2,2.4,2.5,4.7,3.9,7c1.4,2.3,2.8,4.5,4.4,6.6c0.8,1.1,1.6,2.1,2.6,3
			c0.9,0.9,1.9,1.8,3,2.2l-0.3,1c-1.5-0.4-2.6-1.2-3.7-2.1c-1.1-0.9-2.1-1.9-3-2.9c-1.9-2-3.6-4.2-5.2-6.4c-1.6-2.2-3.2-4.4-4.7-6.7
			c-1.5-2.3-2.9-4.6-4.4-6.9L-220.1,616.8z"/>
	</g>
	<g class="st1">
		<path d="M-375.5,571.6c0.2,0.3,0.2,0.4,0.3,0.6c0.1,0.2,0.2,0.3,0.2,0.5c0.2,0.3,0.3,0.7,0.4,1c0.3,0.6,0.4,1.3,0.6,2
			c0.1,0.7,0.3,1.3,0.3,2l0.1,1l0,1c0,2.6-0.7,5.2-1.7,7.5l-0.8,1.7l-1,1.5l-0.5,0.8l-0.6,0.7l-1.2,1.4c-0.8,0.9-1.7,1.7-2.5,2.5
			l-2.7,2.2l-0.7-0.8l2.2-2.5c0.7-0.9,1.3-1.8,1.9-2.7l0.8-1.4l0.4-0.7l0.3-0.7l0.6-1.5l0.4-1.5c0.5-2,0.6-4,0.3-5.9l-0.1-0.7
			l-0.2-0.7c-0.1-0.5-0.3-0.9-0.5-1.3c-0.2-0.4-0.4-0.8-0.6-1.2c-0.1-0.2-0.2-0.4-0.4-0.6c-0.1-0.1-0.1-0.2-0.2-0.2
			c-0.1-0.1-0.1-0.2-0.1-0.1L-375.5,571.6z"/>
	</g>
	<g class="st1">
		<path d="M-561.1,599c-1,1.6-1.9,3.3-2.8,5c-0.9,1.7-1.7,3.5-2.5,5.2c-0.8,1.8-1.4,3.6-1.9,5.4c-0.2,0.9-0.4,1.8-0.5,2.8
			c-0.1,0.9,0,1.8,0.4,2.6l-0.9,0.5c-0.6-1-0.8-2.1-0.8-3.1c0-1,0-2.1,0.2-3.1c0.3-2,0.8-4,1.4-5.9c0.6-1.9,1.2-3.8,1.9-5.7
			c0.7-1.9,1.5-3.7,2.3-5.6L-561.1,599z"/>
	</g>
	<g class="st1">
		<path d="M-415.8-5.2c-1.5,0.3-3.1,0.5-4.6,0.8l-4.6,0.8c-3,0.7-6.1,1.2-9,2.1c-2.9,0.8-5.8,1.8-8.4,3.2c-1.3,0.7-2.4,1.4-3.5,2.3
			c-1.1,0.9-2,1.9-3.1,3.1l-0.6,0.6l-1.1,0.1c-2.3,0.3-4.6,1.2-6.6,2.6c-2.1,1.3-4,3.1-5.8,4.9c-1.8,1.9-3.5,4-5.2,6.1
			c-0.8,1.1-1.7,2.2-2.5,3.3c-0.8,1.1-1.6,2.3-2.6,3.5l-0.6,0.8l-1,0.3c-4.9,1.3-9.9,2.7-14.7,4.4c-2.4,0.8-4.8,1.8-7.2,2.7
			c-2.3,1-4.7,2-7,3.1c-9.1,4.4-17.8,9.8-24.9,16.9l-0.4,0.4l-0.6,0.2c-4.2,1.7-8.3,3.5-12.2,5.7c-3.9,2.1-7.6,4.6-10.9,7.4
			c-3.3,2.8-6.2,6-8.5,9.7c-1.2,1.8-2.3,3.8-3.6,5.8c-1.3,2-2.8,4.3-5.1,6.1l-0.4,0.3l-0.4,0.1c-2.1,0.7-3.9,2.6-5.4,4.9
			c-1.5,2.3-2.6,5-3.5,7.8c-0.9,2.8-1.6,5.7-2.1,8.7c-0.3,1.5-0.5,3-0.6,4.4c-0.2,1.5-0.3,3-0.3,4.3l0,1.6l-1.3,0.9
			c-2,1.4-3.8,2.9-5.5,4.5c-1.7,1.7-3.2,3.5-4.6,5.4c-2.7,3.9-4.7,8.3-5.9,12.9c-1.2,4.6-1.7,9.5-1.8,14.4c-0.1,4.9,0.4,9.9,0.8,15
			l0.1,0.7l-0.3,0.7c-2.6,6-4.6,12.2-5.6,18.5c-0.5,3.2-0.7,6.3-0.7,9.4c0.1,3.1,0.5,6.2,1.3,9.2c1.5,5.9,4.6,11.3,8.8,15.7
			c2.1,2.2,4.4,4.2,7,6c2.5,1.8,5.2,3.3,8.1,4.7l0,0l2.4,2.8l0,0.2c-0.2,3.9,0.8,7.7,2.3,11.1c1.6,3.4,3.8,6.5,6.4,9.1
			c2.6,2.6,5.6,4.7,8.9,6.1c1.7,0.7,3.4,1.2,5.1,1.6c0.9,0.2,1.8,0.3,2.7,0.4c0.9,0.1,1.8,0.1,2.8,0.2l0,0l2.2,0.4l1.3,2.2
			c0.1,0.1,0.2,0.3,0.4,0.6c0.3,0.3,0.6,0.6,1,0.9c0.8,0.6,1.7,1.3,2.7,1.9c2,1.2,4.3,2.3,6.7,3.3c2.4,1,4.8,1.9,7.3,2.6
			c2.5,0.8,5,1.4,7.4,1.9l0,0l2.1,0.4l1.3,2.1c2,3.4,4.2,6.7,6.6,9.6c2.4,3,5.1,5.6,7.9,7.6c2.9,2,5.9,3.4,9.1,4
			c3.2,0.6,6.5,0.5,9.9-0.2l0,0l3.6-0.4l2.1,2.3c1.8,1.9,4.3,3.5,7.1,4.7c2.8,1.2,6,2.1,9.2,2.7c6.5,1.1,13.3,1.1,19.9,0
			c3.3-0.6,6.5-1.4,9.6-2.5c0.8-0.3,1.5-0.6,2.3-0.9l1.2-0.5l1.5-0.6c2.1-0.8,4.2-1.4,6.3-1.9c2.2-0.4,4.4-0.8,6.5-0.9
			c2.2-0.1,4.3-0.1,6.4,0.1c4.2,0.3,8.3,1.1,12.1,2c7.7,1.9,14.7,4.5,21.6,6.9c3.5,1.2,6.9,2.4,10.3,3.4c1.7,0.5,3.4,1.1,5.1,1.6
			c2.2,0.7,4.5,1.6,6.6,2.7c4.2,2.2,7.9,5.1,11.1,8.3c3.2,3.2,5.8,6.6,8.1,10.2c4.5,7.1,7.7,14.6,10.2,22.2
			c2.5,7.6,4.2,15.2,5.5,22.9c1.3,7.7,2.1,15.3,2.6,23c0.9,15.4,0.4,30.7-1.5,46c-2,15.3-5.2,30.5-10.9,45.4
			c-2.8,7.4-6.3,14.8-10.7,21.9c-4.4,7.1-9.9,13.9-17.2,19.7l0,0l2.9-3.2l-0.3,0.5l-0.2,0.2l-0.3,0.4c-0.2,0.2-0.3,0.4-0.5,0.6
			c-0.3,0.4-0.5,0.6-0.8,0.9c-0.3,0.3-0.5,0.5-0.7,0.7c-0.2,0.2-0.5,0.4-0.7,0.6c-0.9,0.8-1.7,1.4-2.4,2c-1.6,1.2-3.1,2.1-4.6,3
			c-3,1.7-5.9,3.1-8.7,4.4c-5.8,2.5-11.5,4.4-17.1,6.1c-11.4,3.3-22.7,5.7-34,7.6c-11.3,1.9-22.6,3.3-33.9,4.5l-8.5,0.8l-8.5,0.7
			l-8.5,0.6l-8.2,0.7c-10.9,1-21.7,2.8-32.2,5.5c-10.6,2.7-20.9,6.4-30.8,11.1c-9.8,4.8-19.2,10.6-27.6,17.8
			c-4.2,3.6-8.1,7.4-11.8,11.6c-1.8,2.1-3.5,4.2-5.1,6.5c-1.6,2.2-3.1,4.6-4.4,7l-1.5-0.6c1.1-2.7,2.4-5.2,3.9-7.6
			c1.4-2.5,3-4.8,4.7-7.1c3.4-4.6,7.1-9,11.1-13c8.1-8.1,17.3-15.1,27.2-20.9c9.9-5.9,20.4-10.6,31.3-14.4
			c10.9-3.8,22.1-6.6,33.4-8.7l8.5-1.4l8.2-1.3l8.2-1.4l8.2-1.5c10.9-2.1,21.7-4.4,32.3-7.1c5.3-1.4,10.6-2.9,15.7-4.4
			c5.2-1.6,10.3-3.4,15.2-5.3c4.9-1.9,9.7-4,14-6.4c2.2-1.2,4.2-2.4,6-3.7c0.8-0.6,1.7-1.3,2.3-1.8c0.3-0.3,0.6-0.5,0.7-0.7
			c0.1-0.1,0.1-0.1,0.1-0.1c0,0,0.1-0.1,0-0.1c0,0,0,0-0.1,0.1c0,0.1,0,0-0.1,0.1l-0.1,0.2l-0.1,0.1l-0.3,0.4l2.9-3.2l0,0
			c4.4-3.3,8.4-7.9,11.8-13.2c3.5-5.3,6.4-11.3,8.9-17.5c5-12.5,8.4-26.1,10.5-39.9c2.1-13.8,3-27.9,2.5-41.9
			c-0.4-14-2.2-27.9-5.9-40.9c-1.9-6.4-4.3-12.6-7.4-18.1c-3.1-5.4-6.9-10-11.4-12.6c-1.1-0.7-2.2-1.2-3.5-1.7
			c-1.8-0.7-3.6-1.3-5.3-2c-3.5-1.4-7-2.8-10.4-4.3c-6.8-2.9-13.4-5.8-19.8-7.9c-3.2-1.1-6.4-1.9-9.4-2.4c-3.1-0.5-6.1-0.6-9-0.1
			c-1.4,0.2-2.9,0.6-4.3,1l-1,0.4l-1.4,0.5c-1,0.4-1.9,0.7-2.9,1c-3.9,1.3-7.8,2.2-11.8,2.8c-7.9,1.2-16,1.2-24-0.1
			c-4-0.7-8-1.8-12-3.4c-3.9-1.6-7.9-3.9-11.3-7.2l5.7,1.8l0,0c-4.7,0.7-9.9,0.6-14.9-0.7c-5-1.3-9.5-3.7-13.2-6.8
			c-3.8-3-6.9-6.5-9.5-10.2c-2.7-3.7-4.9-7.5-6.8-11.4l3.4,2.5l0,0c-2.9-0.6-5.7-1.3-8.5-2.2c-2.8-0.9-5.5-1.8-8.2-3
			c-2.7-1.1-5.4-2.4-8-4c-1.3-0.8-2.7-1.7-4-2.8c-1.3-1.1-2.7-2.5-3.9-4.7l3.5,2.7l0,0c-0.9-0.3-2-0.7-3-1.1c-1-0.4-2.1-0.8-3.1-1.2
			c-2.1-0.9-4.1-1.9-5.9-3.1c-3.8-2.3-7.2-5.2-10-8.4c-1.4-1.6-2.7-3.3-3.9-5.1c-1.2-1.8-2.2-3.6-3.3-5.5c-2.1-3.7-4-7.4-6.4-11.2
			l2.4,3l0,0c-3-1.8-6-3.9-8.8-6.2c-2.8-2.3-5.4-4.9-7.7-7.7c-4.7-5.6-8-12.5-9.4-19.6c-0.7-3.6-1-7.2-1-10.8
			c0.1-3.6,0.5-7.1,1.2-10.6c1.4-6.9,3.7-13.5,6.6-19.7l-0.2,1.4c-0.4-5-0.9-10.2-1-15.5c0-5.3,0.5-10.6,1.8-15.9
			c1.3-5.3,3.6-10.4,6.7-14.8c1.6-2.2,3.3-4.3,5.3-6.3c2-1.9,4.1-3.6,6.3-5.2l-1.3,2.5c0-1.8,0.2-3.4,0.3-5c0.2-1.6,0.4-3.2,0.7-4.8
			c0.6-3.2,1.3-6.4,2.3-9.5c1-3.1,2.3-6.2,4.2-9.2c0.9-1.5,2.1-2.9,3.4-4.2c1.4-1.3,3-2.4,5-3.1l-0.8,0.4c2.7-2,4.6-6.4,7.3-10.4
			c2.6-4.1,6-7.8,9.7-10.9c3.7-3.1,7.7-5.8,11.9-8.1c4.2-2.3,8.5-4.2,12.8-6l-1,0.7c3.8-3.8,8.1-7.2,12.6-10.2
			c4.5-3,9.2-5.6,13.9-7.9c4.8-2.3,9.7-4.3,14.7-6.1c5-1.8,10-3.4,15.1-4.8l-1.7,1.1c1.6-2,3.2-4.4,5-6.7c1.8-2.3,3.7-4.5,5.9-6.6
			c2.1-2.1,4.5-4,7.3-5.5c2.7-1.5,5.8-2.6,9.1-2.8l-1.6,0.8c1.1-1,2.4-2.2,3.8-3.3c1.4-1,3-1.8,4.5-2.5c3.1-1.3,6.3-2.1,9.5-2.6
			c3.2-0.6,6.3-0.8,9.5-1l4.7-0.2c1.6,0,3.2,0,4.7,0L-415.8-5.2z"/>
	</g>
	<rect x="-637.2" y="668" style="display:inline;fill:none;" width="593.9" height="113.9"/>
	
		<text transform="matrix(1 0 0 1 -620.617 714.103)" style="display:inline;fill:#9ACA3C; font-family:'TrajanSansPro-Regular'; font-size:72px; letter-spacing:10;">TelemachuS</text>
	<rect x="-637.2" y="758" style="display:inline;fill:none;" width="593.9" height="113.9"/>
	
		<text transform="matrix(1 0 0 1 -590.4495 804.103)" style="display:inline;fill:#9ACA3C; font-family:'TrajanSansPro-Regular'; font-size:72px; letter-spacing:10;">TelemaquS</text>
</g>
<g id="Isolation_Mode" class="st0">
	<path class="st4" d="M659.5,751.9c-0.4,1.7-0.6,4.4-0.6,10.6v23.4c0,4.2,0.2,9.4,0.6,10.7c-1.6-0.4-4.1-0.6-6.3-0.7
		c0.7-1.2,1.1-3.2,1.4-7.9c0.1-2.6,0.3-6,0.3-11.4h-29.3c-9.1,0-18.2,0.3-20.8,0.6c0.1-0.7,0.1-1.9,0.1-3c0-1.7-0.1-3.2-0.2-4.4
		c2.4,0.4,11.5,0.6,20.9,0.6h29.3c0-3.3,0-5.2-0.1-9.9c-0.2-4.8-0.5-7.8-1.2-9.6C654.7,751.2,658,751.8,659.5,751.9z"/>
</g>
<g id="Layer_3">
	<g>
		<g>
			<g>
				<path class="st5" d="M245,756c0.3-1.6,0.6-3.3,0.9-4.9c1.1-5.6,0.3-11.1-1.2-16.6c-2.2-7.9-5.7-15.3-9.4-22.5
					c-2.3-4.6-4.8-9-7.3-13.5c-0.3-0.5-0.6-0.9-1.1-1.7c-0.3,0.9-0.6,1.5-0.8,2.1c-2.1,6.9-6.3,11.9-13,14.8
					c-3.1,1.3-6.2,2.7-9.1,4.4c-2.3,1.3-4.3,3-6.2,4.8c-1.7,1.5-2.8,3.5-3.1,5.8c-0.1,0.5-0.4,0.9-0.8,1.3c-0.7-1.6-0.6-3.2-0.1-4.8
					c1-2.8,2.8-5,4.9-7c3.1-2.9,6.6-5,10.4-7c0.7-0.4,1.4-0.7,2.1-1c6.5-3.1,9.8-8.4,11.1-15.3c0.1-0.8,0.3-1.6,0.4-2.4
					c0.2-2.1,0.1-4-0.6-6.1c-4.1-12-2.4-23.5,3.3-34.5c1.1-2.2,2.4-4.3,3.8-6.7c-1.1,0-2-0.1-2.9,0c-12.4,1.1-24.8,2.2-37.3,3.4
					c-1.1,0.1-2.3,0.4-3.2,0.9c-8.8,5.6-17.4,11.4-25.1,18.4c-2,1.8-3.9,3.6-5.5,5.7c-1.3,1.6-2.2,3.5-3.2,5.3
					c-0.2,0.4-0.5,0.7-0.8,1.3c-0.8-1.3-0.5-2.4-0.1-3.4c0.8-2,1.6-4.1,2.8-5.8c2.7-3.8,5.5-7.5,8.4-11c2.5-3,5.3-5.8,8.2-9
					c-1.3,0.2-2.2,0.3-3.1,0.4c-17,3.1-33.3,8.2-48.7,16.2c-1.7,0.9-3,2.3-3.8,4c-0.7,1.5-1.6,3-2.3,4.6c-1.9,4.1-3.7,8.1-3.1,12.8
					c-1.2,0.2-1.4-0.5-1.4-1.1c0-2.1-0.1-4.3,0.2-6.4c0.4-2.3,1.2-4.6,1.9-6.9c0.2-0.7,0.4-1.3,0.7-2.2c-0.5,0.2-0.8,0.3-1.1,0.5
					c-12.1,7.6-22.7,16.7-31.1,28.2c-1.2,1.7-3.1,4.4-4,6.2c-0.6,1.1-1.2,1.2-2.2,0.3c0.3-0.7,0.6-1.5,0.9-2.3
					c3.4-7.1,8-13.5,13.1-19.4c11.4-13.2,25.2-23.3,40.6-31.3c15.8-8.2,32.6-13.9,50.1-17.4c10-2,20.1-3.5,30.2-5.3
					c23.5-4.2,46.7-9.1,69.2-17.2c6.4-2.3,12.7-4.9,18.6-8.2c3.7-2,7-4.4,9.9-7.5c1.2-1.4,2.8-2.4,4.1-3.7c5.5-5.3,9.6-11.7,13-18.6
					c5.6-11.1,9.3-22.9,12-35.1c4-18,5.6-36.2,5.2-54.5c-0.4-15.5-2.2-30.8-7.1-45.6c-2.1-6.4-6.9-12.2-9.6-15.1
					c-5.3-6.1-9.9-9.8-16.3-13.1c-25-13-55.1-9.4-70-13.2c-5.2-1.3-10-3.4-14.4-6.4c-0.7-0.5-1.6-0.7-2.4-0.7
					c-13,0.5-22.9-5.4-30.8-15.2c-2.6-3.3-4.8-7-7.1-10.5c-0.7-1.2-1.6-1.8-2.9-2.2c-6.1-1.6-12.1-3.7-17.7-6.6
					c-3.3-1.7-6.3-3.7-8.9-6.5c-0.5-0.6-1.3-1-2-1.2c-10.6-1.2-20.1-7.3-25.9-21.4c-0.3-0.6-0.6-1.2-0.9-1.7
					c-2.1-5-5.4-9.4-9.7-12.7c-3.8-2.9-7.3-6.2-10.3-10c-4.9-6.2-7.9-13.1-9.1-20.9c-0.2-1-0.6-2-0.9-2.9v-9.6
					c0.3-1.1,0.7-2.1,0.9-3.2c1-7.1,3.1-13.9,5.9-20.4c0.7-1.6,1-3.1,0.8-4.9c-0.6-6.3-1-12.6-0.5-18.9c1.2-13.5,6.4-24.9,17.1-33.4
					c0.9-0.7,1.5-1.7,1.6-2.9c0.4-3.4,0.8-6.8,1.6-10.2c1.1-5.3,2.8-10.3,5.7-14.9c1.6-2.5,3.5-4.9,6.2-6.3c2.3-1.1,3.8-2.9,5-5
					c0.8-1.3,1.6-2.6,2.3-3.9c3.4-5.6,7.6-10.5,12.7-14.5c6.3-5,13.4-8.6,20.8-11.8c1-0.4,2.4-1.3,3.1-2.1c5.4-5,11.5-9.2,18-12.8
					c10.4-5.8,21.4-9.9,32.8-13.3c1.9-0.6,3.2-1.4,4.3-3c3.1-4.6,6.6-8.8,10.9-12.4c3.6-2.9,7.5-5.2,12.1-6c0.7-0.1,1.5-0.6,2.1-1.1
					c3.1-2.7,6.6-4.4,10.5-5.5c7.8-2.1,15.8-2.5,23.8-2.4c0.3,0,0.5,0.2,1.1,0.3c-0.7,1.1-1.6,1-2.4,1.2c-4.8,0.9-9.6,1.8-14.3,2.9
					c-4.1,0.9-8,2.3-11.5,4.5c-0.7,0.5-1.7,0.8-2,2c2.1,0.2,4,0.4,5.8,0.7c1.8,0.3,3.8,0.3,5.5,1.7c-0.4,0.3-0.5,0.5-0.6,0.5
					c-0.4,0-0.8,0.1-1.2,0c-5-0.5-9.9,0.3-14.8,0.8c-3.5,0.4-6.2,1.9-8.8,4.1c-3.7,3.1-6.6,6.8-9.4,10.5c-0.3,0.4-0.5,0.9-0.8,1.5
					c1.6,0.1,3,0.3,4.3,0.4c3.1,0.3,6.2,0.7,9.3,1c0.6,0.1,1.4,0,1.1,1.3c-0.8,0-1.6,0.1-2.5,0.2c-5.5,0.6-11,0.8-16.4,1.9
					c-9.3,2-18.3,5.1-27,9.1c-7.7,3.5-15,7.6-21.6,12.9c-0.6,0.5-1.2,1.1-2,1.8c2.7,0,4.9,0.1,7.2,0c4.1-0.2,5.2-0.1,6.7,1
					c-1,0.2-1.8,0.4-2.5,0.5c-3.9,0.7-7.8,1.2-11.6,2c-16.9,3.9-30.6,12.3-39.1,27.9c-0.3,0.5-0.5,1-0.8,1.7c0.5,0,0.7-0.1,1-0.1
					c4.8-0.9,9.7-1,14.6-0.7c0.6,0,1.5-0.1,1.5,0.9c-0.2,0.2-0.3,0.3-0.4,0.3c-0.3,0.1-0.6,0.1-0.9,0.1c-7.5,0.3-14.4,2.5-21.3,5.3
					c-2.6,1.1-4.4,2.8-5.8,5.1c-0.7,1.2-1.3,2.4-1.9,3.6c-2.3,5.3-3.5,10.9-4.2,16.7c-0.1,0.8,0,1.5,0,2.5c1.4-0.4,2.5-0.8,3.7-1
					c1.1-0.2,2.2-1.2,3.9-0.1c-0.9,0.6-1.5,1-2.1,1.4c-3.1,2.1-6.3,4.1-9.3,6.3c-6.9,5-11.2,12-13.5,20.1
					c-2.1,7.5-2.2,15.2-1.7,22.8c0,0.2,0.3,0.3,0.5,0.6c2.4-2.4,4.5-5,7.4-6.8c0.4,1.1,0.3,1.1-0.1,1.9c-2.3,3.9-4.8,7.8-6.7,11.9
					c-4.3,9.1-7.1,18.7-6.9,28.9c0.2,11.8,5,21.5,14.1,29c0.4,0.3,0.9,0.5,1.4,0.8c-0.5-4.2-1-8.2-1.4-12.2
					c-0.5-5.4-0.4-10.9,0.4-16.3c1.2-7.7,4-14.7,8.9-20.9c0.6-0.8,0.7-1.9,0.3-2.8c-1.8-4-3.9-7.9-7.3-10.9c-1.2-1.1-2.5-2-4.2-2.1
					c-0.3,0-0.6-0.5-0.9-0.7c0-0.2,0.1-0.3,0.1-0.5c1.1-0.1,2.3-0.1,3.4-0.2c0-0.7,0.1-1.5,0.1-2.2c0.2,0,0.4-0.1,0.6-0.1
					c0.2,0.5,0.5,1,0.7,1.5c0.4,1.3,1.1,2.2,2.2,3c1.9,1.5,3.6,3.2,5.3,4.8c0.4,0.4,0.9,0.8,1.3,1.3c1.1-4.8,2-9.4,3.2-14
					c4.2-16.3,12.2-30.2,25.6-40.6c1.9-1.5,2.6-3.2,2.6-5.5c0-0.7,0-1.4,0-2.2c-0.2-5.4-3-7.7-8.3-6.8c-0.2,0-0.3,0.1-0.5,0.1
					c-4.4,0.8-8.3,2.7-12.2,4.9c-0.6,0.4-1.2,1.1-2.3,0.7c0.2-1.6,1.6-2.1,2.6-2.9c1-0.9,2.1-1.6,3.2-2.5c-3.7-2.5-4.6-3.6-4.7-5.7
					c1.1-0.3,1.3,0.8,1.7,1.3c2.4,2.5,4.9,3,7.9,1.6c1.5-0.7,3.1-1.3,4.7-1.7c5.7-1.5,9.8,0.3,12.8,5.3c0.2,0.3,0.4,0.6,0.6,0.9
					c0.2,0,0.4,0,0.4-0.1c0.4-0.6,0.8-1.2,1.2-1.8c4.6-7.6,9.7-14.9,15.8-21.4c7.6-8.1,16.2-14.8,26.7-18.6c2.3-0.8,4-2.2,5.5-4
					c2.6-3.2,2.2-5.3-1.7-6.8c-2.3-0.9-4.8-1.3-7.2-1.9c-0.9-0.2-1.9,0.1-2.7-1.2c2.2-0.6,4.2-0.1,6.2-0.4c-0.1-0.9-0.1-1.6-0.2-2.3
					c0.2-0.1,0.3-0.1,0.5-0.2c0.4,0.4,0.7,0.9,1.1,1.3c0.6,0.6,1.2,1.5,1.9,1.7c2.7,0.6,5.1,1.8,6.8,4c1.8-1.6,3.3-3,5-4.4
					c6.1-5,13-8.4,20.4-10.9c8-2.6,15.9-5.3,24-7.4c6.1-1.6,10.3-5,13.6-10.2c1.1-1.7,2.3-3.3,3.2-5.1c2.4-4.6,4.8-9.2,7-13.9
					c5.3-11.3,14.2-17.8,26.5-19.7c2.4-0.4,4.9-0.6,7.3-0.9c0.7,0,1.3,0,2,0c2.5,0.3,5.1,0.4,7.6,0.9c4.6,0.8,9.1,1.8,13.6,2.7
					c0.9,0.2,1.9,0.4,2.8,0.2c5.9-1.4,11.8-1.1,17.6-0.1c9.7,1.7,18.9,4.7,27.6,9.4c0.7,0.4,1.7,0.5,2.5,0.6
					c4.1,0.3,8.2,0.2,12.1,1.4c2.6,0.7,5.1,1.6,7.7,3.6c-0.8,0.1-1.3,0.4-1.5,0.2c-5.8-2.9-11.9-3.4-18.2-3.1
					c-1.2,0.1-2.4-0.2-3.5-0.8c-11.4-5.6-23.3-9.2-36.1-9.3c-1,0-2.1,0-3.1,0.1c-0.9,0.1-1.9,0.3-3.1,0.5c0.4,0.5,0.7,0.9,1.1,1.3
					c1.6,1.8,3.2,3.6,4.7,5.4c0.3,0.4,0.4,1,0.5,1.6c-0.2,0.1-0.3,0.2-0.5,0.2c-0.4-0.4-0.8-0.7-1.1-1.1c-3.2-4-7.4-6.6-12.3-7.8
					c-7.5-1.8-15.1-2.8-22.8-2.2c-4.3,0.3-8.5,1.2-12.4,2.9c-6.4,2.8-11.5,7.9-14.6,14.2c-1.6,3.3-3.1,6.8-4.8,10.1
					c-1.6,3.1-3.3,6.2-5.2,9.8c12.2-5.7,24.5-9,37.7-7.2c1.5-1.7,2.8-3.4,4.4-4.8c4.7-4.3,10.5-6.4,16.6-7.6c3.6-0.7,7.3-0.8,11-1.1
					c0.6-0.1,1.2,0.1,2.1,0.2c-0.8,1.2-1.8,1.1-2.7,1.2c-4.5,0.4-8.8,1.4-13.1,2.9c-3.9,1.4-7.6,3.3-10.6,6.3
					c-0.9,0.9-1.6,1.9-2.7,3.2c1,0.1,1.5,0.2,2,0.1c6.2-0.1,12.3-1.1,18.3-2.1c9.2-1.5,18.4-3.4,27.8-3.8c1,0,2-0.4,3-0.8
					c2.2-0.8,2.7-1,4.6-0.5c-4.2,1.2-7.9,3.3-10.5,7c-0.2-0.2-0.3-0.3-0.5-0.5c0.7-1.1,1.4-2.3,2.4-3.8c-2.7,0.4-4.9,0.5-7.2,1
					c-7,1.4-13.9,2.8-20.9,4.3c-7,1.5-14,2.7-21.1,2.6c-2.3-0.1-4.6-0.4-6.9-0.4c-10.8-0.4-20.7,2.8-30.1,7.6
					c-2.9,1.5-5.7,3.2-8.9,5c3.4,0.7,6.4,1.1,9.2,1.9c2.9,0.8,5.4,2.3,7.4,5.4c-0.9-0.1-1.3,0-1.4-0.1c-2.9-3-6.7-3.6-10.6-3.8
					c-5.5-0.2-10.9,0.6-16.1,2.2c-7.9,2.4-15.8,5.1-23.6,8c-6.6,2.4-12.7,5.6-18,10.3c-1.7,1.5-3.2,3.1-4.7,4.7
					c-0.9,1-1.7,2.1-2.8,3.5c1.8,0.2,3.2,0.4,4.7,0.6c6,0.7,11.5,2.7,16.3,6.4c1.9,1.5,4.1,2.1,6.3,2.8c0.6,0.2,1.2,0.4,2.1,0.8
					c-1.3,1.2-2.5,0.3-3.8,0.5c1.2,1.8,2.5,3.5,3.5,5.3c1.1,1.8,2.3,3.6,2.3,6c-0.3-0.3-0.8-0.5-1-0.9c-1.4-2-2.7-4.2-4.2-6.1
					c-6.5-7.8-15-11-25.1-10.5c-6.5,0.3-12.2,3-17.7,6.2c-6.7,3.9-12.3,9.1-17.4,15c-5.8,6.8-10.6,14.2-14.9,22
					c-0.2,0.3-0.3,0.7-0.4,1.1c0,0.1,0,0.1,0.1,0.4c1.7-0.5,3.5-1,5.2-1.4c4.8-1.2,9.7-1.9,14.7-1.2c3.9,0.5,7.5,1.8,10.4,4.5
					c3,2.9,6.6,4,10.6,4.5c0.6,0.1,1.2,0.2,2,0.3c-1.5,1.1-1.5,1.1-8.3,0.6c1.6,4.1,2.7,8.2,2.6,12.5c-1.2,0.3-1.2-0.5-1.4-1.1
					c-0.7-2.3-1.3-4.6-2.2-6.8c-2.5-5.7-6.9-9.3-13.3-9.4c-2.6-0.1-5.2,0.3-7.7,0.8c-4.2,0.8-8.2,2.4-12,4.3
					c-3.3,1.7-6.7,3.1-10,4.7c-0.6,0.3-1.2,0.8-1.7,1.3c-9.1,7.9-15.2,17.8-18.8,29.3c-2.3,7.3-3.6,14.7-4.8,22.2c0,0.3,0,0.6,0,1.2
					c1-0.3,1.9-0.5,2.8-0.8c6-2,12.1-3,18.4-3c7.2,0,13.9,1.6,20.2,5.2c0.8,0.4,1.8,0.8,2.7,0.7c2.6-0.1,5.2-0.4,7.9-0.6
					c0.5,0,1,0,1.5,0.2c-2.1,2-5,1.6-7.6,2.5c2.5,2.3,5,4.4,7.1,7.4c-0.8,0-1.2,0-1.5-0.1c-0.4-0.1-0.6-0.5-0.9-0.8
					c-10.4-9.1-22.4-11.4-35.6-7.9c-7.3,1.9-13.8,5.4-20,9.5c-0.6,0.4-1,1.2-1.4,1.9c-3.2,6.4-4,13.2-3.9,20.3
					c0.2,8.2,1.9,16.2,3.2,24.2c0.4,2.4,0.3,4.8,0.8,7.1c1.9,9.8,7.6,16.7,16.4,21.2c0.2,0.1,0.5,0.1,1,0.2c0.3-2.3,0.6-4.6,0.9-6.8
					c1.4-10.9,4.2-21.3,9.7-31.1c-0.6-0.7-1.2-1.4-1.8-2.1c-3.8-4.2-7-8.7-9.3-13.9c-1.5-3.4-2.4-6.9-2.6-10.7
					c0-0.8-0.3-1.8,0.7-2.3c1.2,3,2,6.1,3.6,8.8c1.6,2.8,3.7,5.4,6,7.8c2.2,2.3,4.7,4.3,7.6,6.9c0.4-0.7,0.7-1.3,1.1-1.8
					c3.7-4.4,8.2-7.8,13.3-10.4c1.6-0.8,3.1-2.1,4.2-3.4c1.6-1.9,2.8-4.1,4.2-6.1c1.8-2.7,3.4-5.4,5.4-7.9c4.2-5.4,9.8-8.6,16.6-9.7
					c0.7-0.1,1.4-0.3,2.3-0.5c-0.5-0.9-0.9-1.6-1.3-2.4c-3.3-6-5.5-12.4-5.2-19.4c0.4-7.2,3.6-12.8,9.8-16.6c3.2-1.9,6.7-3,10.3-3.7
					c1.1-0.2,2.2-0.4,3.2-0.6c0.5-2.7,0.8-5.3,1.4-7.9c0.9-3.9,2.6-7.4,5.1-10.5c0.6-0.7,0.9-1.3,0.6-2.4
					c-1.8-5.5-3.9-10.8-7.5-15.5c-1.4-1.9-3.3-3.5-4.9-5.2c-0.4-0.4-1.2-0.6-0.7-1.6c2,0.3,3.3,1.7,4.7,2.9c1.4,1.2,2.6,2.5,4.2,4.1
					c0.3-5,0.2-9.6,2.4-13.8c0.2,0,0.4,0,0.6,0c0,0.4,0.2,0.8,0.1,1.2c-1.4,5.5-0.8,10.9,0,16.4c0,0.3,0.2,0.7,0.3,1
					c1.5,2.7,3,5.4,4.6,8.4c7-5.3,15-6.4,23.5-5.8c2.6-11.3,7.7-20.9,17.8-27.4c-1.1-4.8-3.3-8.9-6.3-12.7
					c-2.9-3.8-6.5-6.9-10.6-9.5c0.1-0.2,0.2-0.4,0.3-0.6c0.5,0.1,1,0,1.4,0.2c3.7,1.7,7,3.9,10,6.6c0.6,0.5,1.2,1,2,1.8
					c0.3-1,0.7-1.8,0.9-2.6c1-3.5,1.9-6.9,2.9-10.4c0.1-0.5,0.4-1,0.7-1.5c0.2,0,0.4,0.1,0.6,0.1c0,0.7,0.1,1.5,0,2.2
					c-0.6,4.5-1.1,9-1.8,13.5c-0.2,1.5,0,2.7,0.9,4c1.4,2,2.6,4.2,4,6.6c4-1.4,8.3-1.9,12.6-1.6c4.3,0.3,8.5,1.4,12.8,2.9
					c0.3-2.4,0.5-4.6,1-6.7c0.8-3.9,1.6-7.8,2.8-11.6c2.7-8.4,8.2-14.3,16.3-17.8c2.3-1,4.6-1.7,7-2.5c0.6-0.2,1.3-0.2,2-0.3
					c0.1,0.2,0.1,0.3,0.2,0.5c-0.4,0.3-0.7,0.7-1.2,0.9c-2,1-4.1,1.8-6.1,2.8c-8.2,4.3-12.9,11.2-14.3,20.4c-0.9,5.5-1,11-1,16.5
					c0,1.1,0.5,1.7,1.2,2.4c4,3.6,7.1,8,10,12.5c0.3,0.4,0.3,0.9,0.5,1.9c-0.8-0.4-1.2-0.6-1.6-0.8c-0.4-0.3-0.7-0.6-1.1-0.9
					c-6.8-6.2-15.1-9.6-23.8-11.9c-11.3-3-20.8,0.8-27.3,10.4c-3.1,4.6-5.3,10.3-5.8,15.2c5.7,4.5,10.6,10,14.6,16.1
					c-0.1,0.2-0.2,0.3-0.3,0.5c-0.4-0.1-1-0.1-1.3-0.3c-1.6-1.3-3.1-2.8-4.8-3.9c-3.2-2.1-6.4-4.2-9.8-6.1c-1.3-0.7-2.8-1.1-4.3-1.4
					c-4.1-0.6-8.1-0.6-12.2,0.3c-8.5,1.9-14.6,8.4-15.8,17.2c-0.4,2.7-0.3,5.4-0.4,8.1c0,0.7,0,1.4,0,2.2c-2.2,0.2-4.4,0.3-6.5,0.6
					c-2.3,0.4-4.6,0.7-6.8,1.4c-8.6,2.8-11.4,8.6-10.2,16.8c0.9,6.1,3.6,11.5,7.5,16.3c0.8,1,2,1.8,3.2,2.1
					c3.9,1.1,7.8,1.8,11.8,0.9c3.9-0.9,7.5-3.2,9.8-6.6c-5.2-5-11.4-8.2-18.8-9.5c0.8-1.3,1.7-1.1,2.5-1.2c4-0.2,8,0.4,11.8,1.7
					c2.9,1,5.6,2.2,8.7,3.5c3.2-6.8,8.2-12,15.3-15.3c-0.5-0.9-0.9-1.7-1.4-2.4c-3.5-5.4-7.7-10.2-12.3-14.6
					c-0.9-0.9-0.9-0.9-1.3-2.2c2.1,0.5,3.5,2,5.1,3.1c1.6,1.1,3.2,2.4,5.1,3.9c-0.1-4.9-1.6-9.2-2.6-13.6c1.3-0.4,1.4,0.4,1.6,1
					c2.1,4.5,3.7,9.2,4.7,14.1c0.3,1.6,0.9,3,2.1,4.1c1.4,1.4,2.7,2.9,4.2,4.7c7.9-2.9,16.3-2.1,24.8-2.4c0-1.4,0-2.5,0-3.7
					c-0.1-6.1,0.5-12.1,2.6-17.9c2.8-7.7,7.9-13.2,15.8-15.9c0.4-0.1,0.7-0.3,1.1-0.5c-0.9-2-2.5-3.4-4.1-4.7
					c-4-3.1-8.5-4.6-13.5-5.2c-1.1-0.1-1.1-0.1-1.9-1.1c2.5-0.6,4.9-0.4,7.4-0.1c6.7,0.9,12.5,3.7,16.9,9c0.7,0.9,1.5,0.9,2.5,1
					c3,0.1,6,0.4,9.1,0.7c0.4,0,0.8,0.3,1.2,0.5c-0.4,1.2-1.3,0.7-1.9,0.7c-4.2-0.3-8.3-0.1-12.4,1.1c-9.7,2.8-14.9,9.4-16.5,19.1
					c-0.9,5.3-0.6,10.5,0,15.8c0.1,1.1,0.5,1.7,1.7,2c3.9,0.8,7.1,2.9,9.9,5.6c2,1.9,4,3.9,5.9,6c0.9,0.9,1.9,1.5,3.1,1.7
					c6.6,1.1,12.7,0.1,18.3-3.8c0.5-0.3,1-0.6,1.6-1c0.9,1,0,1.4-0.5,1.9c-3.1,2.9-6.7,4.8-10.8,5.9c-1.5,0.4-2.9,0.6-4.8,1
					c0.8,0.5,1.2,0.9,1.8,1.2c5.8,2.9,11.9,3.9,18.4,3.8c1.4,0,1.4,0,2.5,0.9c-0.9,0.2-1.6,0.5-2.4,0.6c-6.5,0.7-12.9,0.4-19.2-1.9
					c-3.7-1.4-7-3.6-9.9-6.2c-1.8-1.7-3.7-3.3-5.5-5c-5.1-4.9-11.2-6.3-18.2-5.2c-2,0.3-4,0.3-6,0.3c-1.5,0-2.6,0.5-3.6,1.4
					c-3.5,3.2-6.5,6.9-8.7,11.1c-2.4,4.4-4.4,9.1-6.5,13.6c-0.3,0.6-0.5,1.2-0.7,1.8c0,0.1-0.3,0.1-0.5,0.2
					c-0.9-0.6-0.4-1.4-0.2-2.1c1.6-5.9,3.6-11.6,6.5-17c1.3-2.4,2.8-4.6,4.2-7c0.2-0.3,0.4-0.7,0.8-1.4c-2,0.4-3.6,0.7-5.2,1.2
					c-3.9,1-7.5,2.6-10.7,5.1c-2.5,1.9-4.6,4.5-6.1,7.3c-2.2,4-4.6,7.9-7.9,11.2c-5.9,5.9-12.9,8-21,6.9c-2.2-0.3-4.4-0.8-6.6-1.3
					c-4.1-1-8.2-1.1-12.3-0.1c-4.1,1-7.5,3.3-10,6.6c-1.6,2.2-3,4.5-4.5,6.8c-1.2,2-2.3,4-3.5,6c-2,3.2-4.5,5.7-7.8,7.6
					c-5.7,3.2-9.8,7.9-12.8,13.6c-3.4,6.5-5,13.6-5.8,20.9c-0.6,5.7-0.5,11.3,0,17c0.1,1.6,0.7,3,2,3.9c1.7,1.2,3.4,2.4,5.3,3.3
					c4.9,2.6,10.1,4.3,15.5,5.7c0.5,0.1,1.1,0.1,1.9,0.2c-0.4-7.6,0.4-14.8,4.2-21.5c-3.2-0.9-6.2-1.7-9.2-2.8
					c-2.9-1.1-5.6-2.6-7.8-4.8c0.5-1.1,1.1-0.7,1.6-0.4c2.7,1.2,5.6,1.8,8.6,2.1c3.8,0.4,7.5-0.1,11.2-0.7c0.6-0.1,1.4-0.5,1.8-0.9
					c4.1-3.4,8.9-5.4,14-6.8c0.3-0.1,0.6-0.2,1-0.4c-0.4-1.9-0.9-3.8-1.3-5.6c-1.1-5.4-2.1-10.8-1.3-16.4c1-7.5,4.6-12.8,11.7-15.6
					c0.3-0.1,0.6-0.3,0.9-0.4c0.1,0,0.1-0.1,0.3-0.3c-0.8-2.7-2.4-5.2-2.6-8c0.2-0.1,0.3-0.2,0.5-0.3c0.4,0.3,0.8,0.6,1.2,1
					c1.5,1.7,3,3.4,4.4,5.1c0.8,1,1.8,1.3,3.2,1.2c3.3-0.1,6.6-0.3,9.8,0.2c8.2,1.2,12.5,5,16,13.5c1.7-1.1,3.2-2.3,4.9-3.3
					c1.7-1.1,3.4-2.1,5.5-3.4c-8.3-1.9-14.1-6.6-18.3-13.4c0.4-0.8,0.8-0.8,1.4-0.4c1.3,1.1,2.6,2.3,4,3.4c5,4,10.7,6.4,17.2,6.2
					c4.3-0.2,8.3-1.3,12.2-3.1c7.1-3.3,13.3-8,19-13.2c2.6-2.4,5-4.9,7.6-7.3c0.5-0.5,0.9-1.3,1.9-1.2c-0.2,2.3-4.5,7.9-10.6,14.1
					c-4.2,4.2-8.8,7.7-14.5,11c6.5,1.6,10.9,5.3,14.5,10.1c0.7-1.1,1.2-2,1.8-2.9c3.7-6,8.4-11.1,14.5-14.8
					c10.7-6.5,21.6-6.4,32.7-0.9c1.6,0.8,3.1,1.7,4.6,2.6c6,3.1,10.3,1.6,13.1-4.5c2.3-5.1,2.7-10.5,2.2-16
					c-1.2-14.7-6.9-27.5-17.1-38.2c-2.5-2.6-5.4-4.7-8.1-7.1c-0.5-0.4-1.4-0.6-0.9-1.6c5.5,1.6,16,11.4,21.4,20.2
					c5.3,8.6,8.6,18,9.5,28.2c2.9-0.2,5.5-0.6,8.2-0.7c2.6-0.1,5.2,0.1,7.7,1c-0.1,1.2-0.8,1.1-1.4,1.2c-4.1,0.3-7.8,1.6-11.5,3.1
					c-2.2,0.9-3.2,2.1-3.4,4.6c-0.2,2.2-0.7,4.4-1.5,6.5c-0.7,1.9-1.7,3.8-2.9,5.5c-2.6,3.5-6.2,5.2-10.6,5.2c-0.5,0-1,0-1.4,0
					c-0.1,0-0.1,0.1-0.3,0.3c0.8,3.3,2.2,6.6,0.9,10.3c-0.2-0.4-0.5-0.7-0.6-1.1c-0.3-1.1-0.5-2.2-0.9-3.2c-1.6-4.4-4-8-8.6-10
					c-3.6-1.6-7.2-3-11.2-3.5c-5.2-0.6-10.2,0.5-14.8,3c-8.4,4.7-14.1,11.7-17.8,20.4c-0.9,2.1-1.7,4.3-2.6,6.9
					c-0.8-1.5-1.4-2.7-2.1-3.9c-1.6-2.7-3-5.5-4.9-8c-3-4-6.9-6.7-12.1-6.8c-2.4-0.1-4.8,0.4-7.1,1c-4.8,1.3-9,3.8-12.9,6.7
					c-3.6,2.7-7.1,5.7-10.7,8.6c-0.7,0.5-1.3,1-2.4,1.9c0.1-1.7,0.2-3,0.3-4.2c0.1-2,0.4-4,0.1-6c-0.8-5.8-4.6-9.5-10.8-10.5
					c-4.1-0.7-8.3-0.5-12.4,0.5c-6.6,1.7-9.8,5.8-10.2,13c-0.2,4.3,0.6,8.4,1.4,12.6c0.5,2.3,1.2,4.6,1.7,7c0.2,1.2,0.9,1.7,1.9,2.2
					c2.5,1.4,5,2.8,7.4,4.4c2.3,1.6,4,3.7,5.2,6.2c0.2,0.5,0.3,1.1,0.5,2c-0.7-0.3-1.1-0.3-1.3-0.5c-3.4-4.4-8.2-6-13.4-7.3
					c-10.4-2.7-22.5,7-24.2,17.5c-1.3,8,0,15.6,2.7,23.1c0.1,0.2,0.2,0.5,0.4,0.6c3.5,4.4,7.6,8.3,12.8,10.6
					c0.3,0.1,0.6,0.1,1.1,0.2c0.2-1.7,0.3-3.2,0.6-4.8c1.4-7.6,5.4-13.8,11-18.9c3.2-2.9,6.7-5.5,10.5-7.5
					c9.2-4.8,18.5-9.2,28.1-12.8c4.3-1.6,8.7-2.7,13.3-3c6.6-0.4,12.7,1.2,18.4,4.5c3.1,1.8,6.1,3.8,9.5,6c4.9-2,10.2-3.9,15.2-6.2
					c8.6-4,12.8-11.2,13.8-20.4c0.6-5.4,0.2-10.7-0.3-16c-0.1-0.7,0-1.5,0-2.4c1.8,1.4,4,8.7,4.6,14.3c0.5,5,0.4,10-1.1,15.2
					c1.5,0.2,2.8,0.4,4.1,0.5c5.5,0.5,11,0.6,16.5-0.3c10.7-1.8,17.1-8.2,19.4-19.2c1-5,1.3-10,1.3-15c0-0.7,0-1.4,0-2
					c1.1-0.4,1.3,0.3,1.4,0.9c0.6,3.5,1.3,7.1,1.9,10.6c0.1,0.5,0.1,0.9,0.2,1.7c4.2,0.1,8.4,0.3,12.6-0.2c2.1-0.3,4.2-0.7,6.3-1.3
					c1.1-0.3,2.3-0.8,3.3-1.3c3.8-1.9,5.7-5,5.6-9.3c-0.2-10.6-1.8-21-5.5-31c-2.2-5.8-4.3-11.5-7.4-16.9
					c-2.9-5.1-6.3-9.8-11.7-12.8c-0.2-0.1-0.3-0.4-0.6-0.9c0.7,0,1.3-0.2,1.6,0c1.9,1.1,4,2.1,5.7,3.5c5,4.1,8.4,9.5,11.1,15.2
					c2.2,4.6,3.9,9.5,5.7,14.2c0.3,0.8,0.5,1.7,0.9,2.8c0.9-0.3,1.7-0.5,2.5-0.7c5.2-1.6,10.4-3.1,16-3c1.9,0,3.9,0.2,5.7,0.6
					c1.5,0.4,2.4,0.1,3.4-1c5.1-5.5,8.3-11.9,9.6-19.2c1.7-9.4,0.4-18.5-2.2-27.5c-0.6-2.2-1.3-4.4-2-6.6c1.4-0.5,1.5,0.6,1.8,1.2
					c2.2,4.3,4.1,8.7,5.3,13.3c0.6,2.3,1.1,4.6,1.7,7.3c2.2-2.1,4.2-3.9,6.1-5.8c2.5-2.5,4.6-5.3,6.2-8.5c3.1-5.8,3.4-11.7,1-17.8
					c-1.5-3.9-3.9-7.3-6.5-10.5c-4.4-5.2-9.5-9.5-14.8-13.6c-1.6-1.3-3.3-2.5-4.9-3.8c-0.6-0.5-1.1-1-2.1-1.9c1,0,1.5-0.2,1.7,0
					c8.9,5.8,17.8,11.4,24.7,19.7c3.4,4.1,6.1,8.6,7.2,13.9c1.5,7.2-0.3,13.6-4.2,19.6c-3.3,5.1-7.7,9.2-12.5,12.8
					c-1,0.8-1.6,1.5-1.6,2.9c-0.1,10.6-3.5,19.9-11.1,27.5c-0.1,0.1-0.2,0.3-0.3,0.4c0.1,0.1,0.1,0.3,0.2,0.4
					c6.2,4.5,8.9,11.1,10.6,18.3c1.6,7,1.9,14.1,1.7,21.2c0,0.3-0.1,0.6-0.2,0.9c0,0.1-0.2,0.2-0.5,0.3c-0.9-0.9-0.7-2.2-0.8-3.3
					c-0.5-6-1.4-11.9-3-17.7c-1-3.6-2.4-7.1-4.4-10.3c-3.9-6.2-9.6-8.8-16.9-8.3c-5.1,0.4-10.1,1.8-15.2,3.2
					c0.1,0.7,0.1,1.4,0.2,2.1c0.7,6.5,1.6,13,2.2,19.5c0.6,6.6-2.6,11.2-8.3,14.2c-3.7,2-7.8,3-11.9,3.4c-3.3,0.4-6.5,0.5-9.8,0.8
					c-0.8,0.1-1.6,0.2-2.4,0.2c-0.3,1.5-0.6,2.9-1,4.3c-2.6,9.3-8.6,15.3-17.8,18.2c-5.9,1.9-11.9,2.3-18,1.7
					c-3.6-0.4-7.1-0.9-10.6-1.4c-1.8,1.9-3.4,3.8-5.3,5.5c-3.3,3-7.2,5.1-11.3,6.7c-4.6,1.8-9.3,3.4-14.1,5.2
					c-0.7-0.5-1.5-1-2.4-1.4c-3.4-1.8-6.6-3.9-10.1-5.5c-5.9-2.7-12.1-2.9-18.2-0.5c-2.9,1.1-5.8,2.3-8.5,3.8
					c-6.8,3.8-13.6,7.8-20.3,11.8c-3.8,2.3-7.2,5.1-9.9,8.6c-2.1,2.6-3.5,5.6-3.9,8.9c-0.2,1.8,0.1,3.3,1.5,4.8
					c3.8,4,8.5,6.2,13.7,7.4c12.1,2.8,24,1.9,35.5-3c7.1-3,14.4-4.2,22-3.5c6.2,0.5,12.1,2,18,3.8c1.4,0.4,3.7,1.3,5.1,1.7
					c4,1.2,10.2,2.8,14.3,2.7c7.9-0.1,11.6-0.5,19.6-3.5c2.3-0.7,5.9-2.3,8.4-3.2c-0.7-2.1-1.9-3.4-3.2-4.7c-3.2-3-7-4.8-11-6.1
					c-5.8-2-11.8-2.9-17.9-3.4c-7.7-0.6-15.5-0.8-23.2-1.5c-12.9-1.2-25.6-3.5-37.7-8.5c-1.8-0.8-3.6-1.6-5.4-2.5
					c-0.5-0.2-0.9-0.6-1.4-1c0.9-1,1.6-0.3,2.2,0c5.7,2.5,11.6,4.2,17.6,5.4c9.8,2,19.6,2.9,29.5,3c4.3,0,8.6,0,13.3,0
					c-0.7-1-1.2-1.6-1.7-2.2c-1.6-2.3-2.1-4.9-1.1-7.5c2.4-6.4,7.1-10,13.7-11.4c0.1,0,0.3,0.1,0.4,0.1c0.1,0,0.1,0.1,0.2,0.2
					c0.2,1-0.6,0.9-1.2,1.1c-3.1,0.9-5.8,2.4-7.8,4.9c-1.2,1.5-2.3,3.3-3.1,5.1c-1.1,2.5-0.5,4.9,1.4,6.8c1.7,1.7,3.7,2.9,6.3,3.1
					c6.2,0.3,12.4,0.9,18.5,2.7c4.7,1.4,9.2,3.3,12.9,6.6c1.8,1.6,3.4,3.6,5.2,5.4c1.9-1.4,3.4-3.2,4.7-5.3c1.6-2.6,3-5.3,4.3-8
					c0.5-1.1,0.7-2.5,0.6-3.7c-0.3-4.7-4.4-8.9-9-9.6c-1.4-0.2-2.9-0.2-4.3-0.3c-5.3-0.6-9.1-3.3-11.4-8c-0.1-0.3-0.3-0.6-0.3-0.9
					c0-0.1,0.1-0.3,0.2-0.5c1-0.4,1.1,0.5,1.5,1.1c1.9,3,4.7,4.8,8.3,5.3c0.6,0.1,1.7,0.1,2.4,0.1c2.4-0.2,4.7-0.4,7.3-0.6
					c-0.3-0.8-0.7-1.6-1-2.4c-1.4-3.7-2-7.4-0.7-11.2c0.7-2,1.8-3.8,3.3-5.2c0.2-0.2,0.4-0.3,0.6-0.4c0.1,0,0.3,0.1,0.6,0.2
					c-0.1,0.3,0,0.7-0.2,1c-3.5,4.4-3.5,9.1-0.9,13.9c1.4,2.7,3.3,5.1,5,7.6c0.5,0.7,1.1,1.3,2,2.5c0.5-2.2,0.9-3.8,1.2-5.5
					c0.8-4.3,1.5-8.7,2.4-13c0.8-4,2.3-7.7,5.5-10.4c0.9-0.8,1.9-1.5,2.9-2.1c0.3-0.2,0.7-0.1,1.4-0.2c-0.5,0.7-0.7,1.1-1,1.4
					c-3.9,3-5.5,7.2-6,11.8c-0.4,4.3-0.7,8.6-1,12.9c-0.6,8.6-2.4,16.9-5.8,24.9c-3.2,7.6-8.4,13.3-15.4,17.6
					c-3.8,2.3-9.9,4.4-14.1,5.9c-26,8.2-59-14-65-4c5,1,12,2,23,7c20,8,33.5,18.1,39.5,32.5c2.4-4.8,15.1-22.4,24.5-28.1
					c10.7-8.6,29.1-14,42.1-18.8c2.9-1.1,18-8,19.5-8.8c-0.7-0.8-1.2-1.4-1.8-2.1c-5.6-6.2-10.5-12.9-13.5-20.8
					c-3.5-9.1-3.9-18.2-0.3-27.4c1.3-3.3,3.1-6.3,5.4-9c0.4-0.4,0.9-0.7,1.3-1c0.2,0.1,0.3,0.3,0.5,0.4c-0.2,0.5-0.4,1.1-0.7,1.5
					c-2.7,4.3-4.2,8.9-4.7,13.9c-0.7,7.1,1.2,13.6,4.7,19.8c1.1-0.4,1.4-1.4,1.8-2.2c9.5-16.4,10.7-33.4,3.4-50.9
					c-1.5-3.6-3.5-7-5.3-10.5c-0.3-0.6-1.2-1.2-0.4-2.1c13.9,15.1,23,43.9,5.9,73.1c3.8,4.7,8.5,8.6,13.4,12.2
					c12.6-5.7,25-11.2,37.7-16.9c-0.8-0.6-1.4-1.1-2-1.6c-4.2-3.3-8-6.9-11.2-11.1c-2.7-3.6-4.8-7.5-5.3-12.2
					c-0.3-2.7,0.1-5.3,0.9-7.8c1.3-3.6,3.2-6.8,5.4-9.9c1.5-2.2,3.1-4.5,4.6-6.7c3.8-5.8,4.1-11.9,1.3-18.3c-1.9-4.3-4.5-8.3-7.4-12
					c-0.6-0.7-1.1-1.5-2-2.7c0.9,0.1,1.4,0,1.6,0.2c4.7,4.9,9.1,10.2,11.6,16.6c2,5.2,2.1,10.5-0.3,15.6c-1.5,3.3-3.4,6.3-5.1,9.5
					c-1.4,2.7-2.7,5.4-3.9,8.2c-1.5,3.5-1,7,0.9,10.1c1.5,2.4,3.3,4.7,5.3,6.8c4,4.2,8.9,7.3,13.9,10.1c0.8,0.5,1.5,0.7,2.4,0.2
					c6.8-3.3,13.6-6.5,19.8-10.8c1.2-0.8,2.3-1.7,3.4-2.7c1.5-1.3,2.7-2.9,3.4-4.9c0.7-2.3,1.8-4.6,2.6-6.9c0.5-1.4,0.4-2.8-0.4-4.2
					c-0.6-1.1-0.8-2.4-1.2-3.6c-0.7-1.9-1.3-3.8-2.3-5.5c-4.1-8-11.6-11.8-20.5-10.6c-0.5,0.1-1,0-1.6,0c0-1.3,1-1.3,1.6-1.4
					c8.1-1.9,15.4-0.3,21.5,5.6c0.6,0.6,1.1,1.2,1.6,1.8c0.5,0.6,1,1.2,1.6,1.8c1.3-0.9,1.6-2.2,1.5-3.4c-0.1-1.7-0.3-3.5-0.8-5.2
					c-0.3-1.2-0.5-2.3,0.2-3.4c2-3.3,2.2-6.8,1.1-10.4c-0.7-2.4-1.2-4.8-2.2-7.1c-3.5-8.3-10.1-11.7-19.3-10.9c-4.9,0.5-9.5,2-14,4
					c-0.6,0.3-1.2,0.4-2.2,0.7c1.4-2.4,7.4-5.7,13.2-7.4c5.2-1.6,6.9-1.7,15.1-0.8c-0.1-0.5-0.1-1.1-0.2-1.5
					c-1.4-5-2.2-10.1-1.6-15.4c0.6-5.2,2.6-9.7,6.2-13.5c0.4-0.5,0.8-1.3,1.9-0.7c-0.1,0.3-0.2,0.7-0.4,1c-5,6.2-5.7,13.2-4.1,20.6
					c1,4.3,2.7,8.4,4.9,12.2c0.4,0.6,0.8,1.2,1.3,1.7c4.1,3.6,6.8,8.3,8.7,13.3c0.2,0.5,0.4,1,0.6,1.5c0.3,0,0.5,0,0.6-0.1
					c7.1-7.2,13-15.2,16.4-24.8c4.1-11.4,2.7-22.2-4.2-32.2c-0.9-1.3-1.1-2.5-1.2-4c-0.5-12.4-2.6-24.5-7.1-36
					c-1.6-4-3.6-7.9-6.5-11.2c-0.3-0.4-0.7-0.8-1.1-1.2c-3.4-3.4-3.9-3.8-9.6-1.6c-4.7,1.8-7.8,5.5-10.3,9.6c-3.7,6-5.8,12.6-7,19.5
					c-1.6,8.4-2.8,16.9-4.4,25.3c-0.9,4.8-1.9,9.6-3.3,14.2c-2.1,7.1-7.2,11.5-13.8,14.3c-0.1,0.1-0.3,0-0.7-0.1
					c0.2-0.4,0.2-0.8,0.5-1.1c0.3-0.3,0.7-0.4,1-0.6c6.9-3.8,10.6-9.8,11.6-17.5c0.7-5.1,1.3-10.3,1.8-15.5c0.5-5.1,1-10.2,1.5-15.3
					c0.1-0.8,0-1.5,0-2.7c-0.9,0.9-1.5,1.6-2.1,2.2c-4.7,5.3-9.7,10.2-15.5,14.3c-2,1.4-4.1,2.6-6.1,3.8c-0.4,0.3-1,0.3-2,0.6
					c0.6-0.8,0.7-1.3,1-1.5c10.8-6.8,18.4-16.7,25.6-26.9c0.5-0.8,0.8-1.7,1.1-2.6c1.4-5.7,3.2-11.2,6.3-16.2
					c3.5-5.8,8.2-10.2,14.7-12.5c0.2-0.1,0.4-0.3,0.7-0.5c-0.6-1.1-1.2-2.2-1.9-3.3c-2.4-3.9-5.1-7.5-8.4-10.7
					c-3.1-3-6.8-5.1-11.2-5.5c-1.2-0.1-2-0.6-2.8-1.5c-5.9-6.1-12.6-11.1-20.6-14.2c-7.7-3-15.5-3.5-23.4-0.9
					c-7,2.2-13.3,5.4-18.5,10.7c-3.3,3.4-7.3,5.7-12.3,6.5c0.3,1,0.6,1.9,0.9,2.8c2.6,8.2,1.5,15.8-4,22.6c-0.8,1.1-1.8,2-2.9,3.1
					c0.5,0.5,0.9,1,1.4,1.6c4.1,4.3,5.1,9.4,3,14.9c-0.9,2.4-2.2,4.7-3.7,6.7c-4.8,6.4-11.1,11.3-18.2,14.9
					c-0.7,0.3-1.4,1.1-2.6,0.2c0.7-0.5,1.2-0.9,1.8-1.2c5.9-3.3,11-7.6,15.3-12.9c1.9-2.3,3.4-4.8,4.5-7.6c1.7-4.4,1.5-9.8-4.4-13.7
					c-3.6,1.8-7.1,3.7-10.7,5.4c-3.6,1.6-7.3,2.9-11.1,3.7c-0.1-0.2-0.2-0.5-0.3-0.7c0.5-0.3,0.9-0.6,1.4-0.8
					c4.1-1.8,8.3-3.4,12.3-5.4c3.8-1.8,7.1-4.3,10-7.4c6.8-7.2,7.7-15.8,3.2-24.5c-0.3-0.7-0.9-1.3-1.6-1.7
					c-9.5-5.1-19.3-9.6-29.9-12.2c-4.3-1.1-8.7-1.5-13.1-1.1c-4.4,0.4-8.2,2-11,5.7c-2,2.6-1.9,4,0.7,6.1c1.6,1.2,3.3,2.3,4.9,3.4
					c2.2,1.6,4.5,3,6.7,4.7c7.6,6,10.1,14,8,23.3c-0.8,3.4-2.1,6.7-3.5,9.9c-0.7,1.6-1.7,3.1-2.8,4.4c-4.2,5.1-9.6,6.7-15.9,4.9
					c-4-1.1-7.5-3.2-10.6-5.8c-0.3-0.3-0.6-0.7-0.9-1.1c1.1-0.8,1.6,0.1,2.2,0.4c3,1.9,6.2,3.5,9.7,4.3c5.4,1.2,11-1.3,13.8-6
					c3.3-5.6,5-11.7,4.5-18.2c-0.3-4.6-2.4-8.5-5.9-11.4c-2.3-1.9-4.9-3.6-7.4-5.3c-2-1.4-4.1-2.5-6-4c-2.5-1.9-3.9-5-3.5-8.1
					c0.5-3.7,3.4-5.9,5.8-8.3c0.5-0.5,1.1-0.9,1.7-1.3c-1.5-1.8-3-3.5-4.3-5.3c-3-3.9-5.3-8.2-6.2-13.1c-0.7-3.7-0.3-7.3,1.6-10.7
					c0.3-0.5,0.7-0.8,1-1.2c0.2,0.1,0.3,0.2,0.5,0.3c-0.1,0.5-0.1,1-0.3,1.5c-1.6,3.8-1.5,7.7,0,11.5c2.4,6.1,6.7,10.7,11.5,14.8
					c0.4,0.3,1.1,0.5,1.6,0.4c8.1-1.9,15.8-0.4,23.5,1.9c8.3,2.4,16.2,6,23.8,10.1c1.6,0.9,3.5,1.2,5.3,0.8c2.9-0.6,5.4-1.8,7.6-3.8
					c0.7-0.6,1.3-1.2,1.9-1.8c4.7-4.6,10.2-7.9,16.4-10.1c0.7-0.2,1.3-0.5,2-0.8c0.1-0.1,0.2-0.2,0.4-0.4c-1.2-2.1-3-3.6-5-5
					c-5.1-3.5-10.8-5.5-16.8-6.6c-3.2-0.6-6.5-0.8-9.8-0.9c-2-0.1-4,0.3-5.8,1.4c-0.9,0.6-1.6,1.4-2.5,2.1c-0.5-1.8-0.4-2,3.4-5.1
					c-4.2-0.8-8.2-1-12.2-1.4c-4-0.4-8.1-0.7-12.1-1.1c-0.3-1.2,0.4-1.2,1.1-1.2c3.1,0,6.2-0.1,9.4,0c9.2,0.2,18.4,0.4,27.5,1.8
					c4.8,0.7,9.4,1.8,13.9,3.5c5.9,2.3,11,5.5,14.4,11.2c7.6-1.6,15.1-0.7,22.3,2.1c7.1,2.7,13.3,6.9,19.3,12.2
					c-0.1-0.9-0.1-1.5-0.2-2.1c-1.2-3.7-3.5-6.6-6.8-8.4c-3.3-1.7-5.2-4.3-6.9-7.5c-3.9-7.5-10-12.7-17.6-16.4
					c-6.5-3.1-13.3-5-20.4-5.8c-5.9-0.7-11.8-0.9-17.7-1.3c0.9-0.1,1.7-0.3,2.6-0.4c12.3-0.8,24.5-0.5,36.2,3.8
					c9.9,3.6,17.7,9.8,23.1,18.9c0.7,1.1,1.6,1.7,2.7,2.3c6.9,3.4,11.6,8.7,13.1,16.4c0.2,1,0.6,1.7,1.7,2c4.6,1.4,8.4,4.2,11.8,7.5
					c4.9,4.7,8.9,10.2,12.3,16.2c0.5,0.9,1.1,1.8,1.9,2.4c4.5,3.1,7.9,7.2,10.6,11.9c4.2,7.3,6.7,15.3,8.6,23.6
					c1.6,7.1,2.6,14.3,3,21.6c0.1,1,0.5,2,1,2.9c3.2,5.4,5.4,11.2,6.3,17.5c1.2,8.6-0.3,16.9-3.7,24.8c-4.7,11.3-12.2,20.6-21,28.9
					c-0.5,0.5-1.1,0.9-1.6,1.5c-1,1-1.7,2.3-1.4,3.7c1.2,5.7,0.5,11-3.2,15.6c2.8,4.9,2.4,9.9,0.6,14.9c-1,2.7-1.8,5.5-3.1,8
					c-1.3,2.4-2.8,4.7-4.7,6.6c-3.2,3-6.6,5.8-10.2,8.3c-9,6.2-22.1,10.6-31.7,15.7c-13.4,7.1-26.4,12.8-39.7,20.1
					c-21.3,10.4-37.3,15.9-47.3,21.9c-6.8,3.4-13.7,8.8-18.5,13.9c-3,3.2-5.1,7-6.4,11.2c-3.8,12.5-6.6,25.3-8,38.3
					c-4,37.7,4.5,72.5,24.7,104.6c2.5,3.9,5.3,7.6,7.8,11.5c8.2,12.9,19.8,22,32.8,29.6c13,7.5,26.9,12.5,41.5,15.9
					c8,1.9,16.1,3.2,24.4,3.9c2.8,0.3,5.6,1.1,8.4,1.9c16.2,4.3,31.5,10.6,45.4,20.1c14,9.5,25.6,21.2,33.6,36.2
					c2,3.8,3.4,7.9,5.1,11.8c0,0.3,0,0.6,0,1c-1.1,0.3-1.4-0.5-1.8-1.2c-4.4-7.5-10-14-16.4-19.9c-13.4-12.3-29.1-20.4-46.3-25.8
					c-0.4-0.1-0.9-0.1-1.5-0.2c1,3.1,2,5.9,2.8,8.8c1.4,4.8,2.1,9.7,2,14.7c0,0.9,0.2,1.9-1,2.9c-0.3-0.9-0.4-1.5-0.6-2.2
					c-1.1-3.3-1.9-6.6-3.2-9.8c-2.3-5.4-5.7-10.1-9.2-14.8c-1.6-2.1-3.4-3.4-6.1-3.7c-4.2-0.5-8.4-1.7-12.6-1.7
					c-17.5-0.2-34.6-2.5-51.3-7.5c-0.6-0.2-1.3-0.3-2.3-0.5c1.2,4,2.5,7.6,5.2,10.5c5.8,6.3,9.7,13.7,12.5,21.6
					c0.7,1.9,1,3.9,1.9,5.7c2.9,6.1,6.1,12.2,10.1,17.7c1.5,2.1,3.2,4.2,5.5,5.6c0.3,0.2,0.3,0.6,0.5,0.9c-0.2,0.2-0.3,0.3-0.5,0.5
					c-5.9-2.7-9.1-8.3-13.2-13.1c0,3.4,0.1,6.7,0,9.9c-0.2,3.2,0,6.6-1.1,9.8c-1.3-0.6-0.9-1.5-1-2.3c-0.2-8.9-1.9-17.5-5.2-25.7
					c-3.6-8.9-8.6-16.9-16-23.2c-2.6-2.2-6.2-6.6-7.9-9.6c-2.2-3.9-4-8.1-5.3-12.4c-0.4-1.4-1.2-2.2-2.5-2.8
					c-2.7-1.3-5.4-2.4-7.9-3.9c-0.7-0.4-1.3-0.6-2.2-1c-0.4,5-1.3,9.7-2.8,14.3c-2.6,7.7-6.7,14.5-11.6,20.9
					c-4.3,5.6-8.3,11.3-11.8,17.5c-2.8,5.1-5.3,10.3-6.4,16c-0.9,4.6-1.1,9.1,2.1,13c0.2,0.2,0.1,0.7,0.2,1.4
					c-0.8-0.5-1.4-0.6-1.6-1c-1-1.5-2.1-3-2.7-4.7c-1.3-3.4-1.2-7.1-0.8-10.7c0.8-5.9,2.6-11.5,4.9-17c3-7.2,6.9-14,10.8-20.8
					c2.4-4.1,4.4-8.5,5.7-13.1c2.3-7.8,2.9-15.6,0.5-23.5c-0.3-0.9-0.9-1.9-1.6-2.5c-10.3-8.1-19-17.8-26.1-28.9
					c-6.6-10.4-12.7-21.1-17.5-32.5c-0.3-0.6-0.6-1.2-1.1-2.2c-0.4,1.1-0.6,1.8-0.8,2.5c-2.4,6.2-4.5,12.5-7.2,18.5
					c-5.7,12.9-13.8,24.1-24.8,33.1c-3.5,2.9-7.3,5.2-11.3,7.2c-0.7,0.3-1.5,0.8-1.9,1.4c-2.1,4.1-3.5,8.4-2.5,13.1
					c0.9,4.4,3.1,8.2,5.7,11.8c3.4,4.6,7,9,10.4,13.5c2.5,3.2,5.1,6.4,7.3,9.8c1.2,1.8,1.9,4,2.8,6.1c0.3,0.8,0.5,1.6-0.2,2.6
					c-0.4-0.4-0.7-0.7-0.8-1c-0.5-2.3-1.8-4.1-3.3-5.8c-1.7-2-3.6-3.9-5.5-5.7c-5.6-5.5-11.3-10.9-16.9-16.3
					c-0.1-0.1-0.3-0.1-0.6-0.1c-2.2,4.5-5.5,8.2-10,11.2c-0.1-0.6-0.3-1.1-0.1-1.3c0.4-0.6,0.9-1.1,1.4-1.7c2.5-3,4.5-6.2,5.3-10.1
					c0.4-1.7,0.2-3.2-0.9-4.7c-3-4.4-4.5-9.3-4.3-14.7c0-0.7-0.1-1.4-0.1-2.1c-0.4,0-0.7,0-0.9,0.1c-15.8,5.2-32,8.3-48.3,10.9
					c-0.8,0.1-1.7,0.6-2.2,1.2c-4.5,4.3-8.4,9-11.3,14.5c-5.7,10.5-6.3,21.3-1.3,32.2c2,4.3,4,8.5,5.9,12.8
					c3.7,8.2,7.2,16.5,9.7,25.3c2.6,9.1,3.5,18.2-0.2,27.3C245.6,756,245.3,756,245,756z"/>
			</g>
		</g>
		<g>
			<path class="st6" d="M55.7,733.6c1.7,0.4,4.4,0.6,10.6,0.6h23.4c4.2,0,9.4-0.2,10.7-0.6c-0.4,1.6-0.6,4.1-0.7,6.3
				c-1.2-0.7-3.2-1.1-7.9-1.4c-2.6-0.1-6-0.3-11.4-0.3v29.3c0,9.1,0.3,18.2,0.6,20.8c-0.7-0.1-1.9-0.1-3-0.1c-1.7,0-3.2,0.1-4.4,0.2
				c0.4-2.4,0.6-11.5,0.6-20.9v-29.3c-3.3,0-5.2,0-9.9,0.1c-4.8,0.2-7.8,0.5-9.6,1.2C54.9,738.4,55.5,735.1,55.7,733.6z"/>
			<path class="st6" d="M118.4,759.9c0-9.9-0.3-15.9-0.7-17.6c0.9,0.1,2.7,0.1,4.1,0.1H136c1.4,0,4-0.1,5.1-0.4
				c-0.1,1.1-0.4,3.3-0.4,5.5c-0.9-0.5-2.2-0.8-5.3-1.1c-2-0.1-5.8-0.2-10.9-0.2c-0.1,0-0.2,0-0.2,0.2v15.3c0,0.2,0.1,0.4,0.2,0.4
				c0.9,0,8.2,0,10.1-0.1c3.4-0.1,4.8-0.3,5.5-0.5c-0.4,1.4-0.6,4.2-0.6,5.5c-0.9-0.4-1.9-0.7-4.4-0.9c-2.2-0.1-9.4-0.2-10.7-0.2
				c-0.1,0-0.2,0.1-0.2,0.3v4.1c0,11.9,0.1,13.5,0.4,13.8c0.2,0.1,0.8,0.3,1.4,0.4c1.5,0.1,3.5,0.3,6.3,0.3c5.8,0,8.7-0.4,10.6-1.2
				c-0.5,1.4-1.1,3.7-1.3,5c-0.2,0.1-0.9,0.1-3.3,0.1c-8.7,0-13.5-0.4-16.2-0.4c-1.9,0-3.5,0.1-4.3,0.1c0.2-2.2,0.6-9.1,0.6-17.7
				V759.9z"/>
			<path class="st6" d="M165.2,759.9c0-8.7-0.2-15.8-0.6-17.6c0.6,0.1,2,0.1,3,0.1c1.6,0,3.5-0.1,4.2-0.2c-0.2,2.3-0.6,9-0.6,17.6
				v10.4c0,12.6,0.1,13.6,0.5,13.9c0.2,0.1,0.7,0.3,1.5,0.4c1.2,0.1,3.5,0.2,6.2,0.2c6.8,0,9.6-0.5,11.2-1.2c-0.5,1.2-1.2,4-1.5,5
				c-0.4,0.1-1,0.1-3.9,0.1c-9.3,0-13.6-0.4-16.8-0.4c-1.7,0-2.8,0-3.5,0.1c0.1-2.2,0.4-9.1,0.4-17.7V759.9z"/>
			<path class="st6" d="M210.5,759.9c0-9.9-0.3-15.9-0.7-17.6c0.9,0.1,2.7,0.1,4.1,0.1h14.3c1.4,0,4-0.1,5.1-0.4
				c-0.1,1.1-0.4,3.3-0.4,5.5c-0.9-0.5-2.2-0.8-5.3-1.1c-2-0.1-5.8-0.2-10.9-0.2c-0.1,0-0.2,0-0.2,0.2v15.3c0,0.2,0.1,0.4,0.2,0.4
				c0.9,0,8.2,0,10.1-0.1c3.4-0.1,4.8-0.3,5.5-0.5c-0.4,1.4-0.6,4.2-0.6,5.5c-0.9-0.4-1.9-0.7-4.4-0.9c-2.2-0.1-9.4-0.2-10.7-0.2
				c-0.1,0-0.2,0.1-0.2,0.3v4.1c0,11.9,0.1,13.5,0.4,13.8c0.2,0.1,0.8,0.3,1.4,0.4c1.5,0.1,3.5,0.3,6.3,0.3c5.8,0,8.7-0.4,10.6-1.2
				c-0.5,1.4-1.1,3.7-1.3,5c-0.2,0.1-0.9,0.1-3.3,0.1c-8.7,0-13.5-0.4-16.2-0.4c-1.9,0-3.5,0.1-4.3,0.1c0.2-2.2,0.6-9.1,0.6-17.7
				V759.9z"/>
			<path class="st6" d="M259.1,752c0.4-3.5,0.6-6.5,1-9.6c0.1-0.8,0.3-1,0.5-1c0.4,0,0.4,0.2,0.9,0.9c0.7,1.1,4,7.3,5.8,10.4
				l14,26.1l12.1-22.9c3.5-5.8,5.3-9,7.3-13.1c0.6-1,0.9-1.4,1.2-1.4c0.3,0,0.4,0.2,0.6,1.5c0.3,3,0.6,6.5,1,9.7
				c1.4,14.4,3.2,32.3,4.1,35.9c-0.6-0.1-1.5-0.1-3-0.1c-1.7,0-3.2,0.1-4.1,0.2c0-3.8-1.5-23.9-2.2-34.3
				c-5.6,10.7-12,23.3-17.1,33.7c-0.6,1.1-0.8,1-1.3,0.1c-5.9-12.5-11.8-23.4-16.7-33.7c-0.7,10.8-2.2,30-2.2,34.1
				c-0.7-0.1-1.9-0.1-2.6-0.1c-1.7,0-3,0.1-3.7,0.2C255.3,785.1,257.6,766.3,259.1,752z"/>
			<path class="st6" d="M338,772.8c-0.1,0-0.3,0-0.3,0.1c-1.9,5.3-4.8,12.6-5.5,15.5c-0.7-0.1-1.3-0.1-2.7-0.1
				c-1.5,0-3.1,0.1-3.7,0.2c1.6-3.2,4-8.6,6.6-14.8l12.4-29.8c0.9-1.9,1.2-2.6,1.6-2.6c0.3,0,0.6,0.5,1.6,2.6
				c0.7,1.5,7,15.3,12.7,27.7c3,6.6,6.5,14.4,8.1,16.8c-1.2-0.1-2.4-0.1-3.2-0.1c-1.7,0-3.7,0.1-4.5,0.2c-1-2.8-4.3-10.7-6.3-15.6
				c-0.1-0.1-0.1-0.1-0.3-0.1H338z M353,768.9c0.2,0,0.2-0.1,0.2-0.2l-7.3-17.2l-6.6,17.2c-0.1,0.1-0.1,0.2,0.1,0.2H353z"/>
			<path class="st6" d="M392.5,782.7c-6-5.3-7.8-12.7-7.8-18.1c0-4.5,1.2-11.3,6.9-16.6c4-3.8,10.2-6.7,19.7-6.7
				c8.6,0,13.8,2,16.4,2.7c-0.4,1.2-0.9,4-0.9,6.2c-2.5-2.5-8-5-15.9-5c-7.5,0-11.5,2.4-14,4.7c-4.1,3.9-5.5,8.9-5.5,14.1
				c0,9.8,6.2,20.9,22.2,20.9c5.5,0,10.6-1,13.8-3.3c-0.5,1.4-1,4.2-1.2,5.6c-2.4,1-7.9,2.1-13.3,2.1
				C404.5,789.3,397.8,787.3,392.5,782.7z"/>
			<path class="st6" d="M449.7,759.9c0-8.7-0.2-15.3-0.7-17.6c0.7,0.1,2.1,0.1,3.1,0.1c1.5,0,3.1-0.1,4-0.2
				c-0.1,2.2-0.4,8.2-0.4,17.1v1.1c0,0.2,0.1,0.3,0.2,0.3h26.4c0.1,0,0.2,0,0.2-0.3v-1.1c0-8.7-0.2-14.8-0.5-17.1
				c0.8,0.1,1.8,0.1,3,0.1c1.4,0,3-0.1,4-0.2c-0.3,2.2-0.6,9.1-0.6,17.7v10.8c0,7.7,0.3,15.1,0.6,17.7c-0.7-0.1-2.1-0.1-3-0.1
				c-1.4,0-3.5,0.1-4,0.2c0.3-2.4,0.5-9.9,0.5-17.8v-5.4c0-0.2-0.1-0.2-0.1-0.2h-26.5c-0.1,0-0.2,0.1-0.2,0.2v5.4
				c0,7.7,0.3,15.1,0.6,17.7c-0.6-0.1-1.7-0.1-2.8-0.1c-1.7,0-3.3,0.1-4.2,0.2c0.2-2.5,0.5-9.9,0.5-17.8V759.9z"/>
			<path class="st6" d="M518.3,742.4c1.9,0,3.5-0.1,4.3-0.2c-0.3,1.9-0.5,9.1-0.5,17.7v8.4c0,8,1.8,11.2,4.5,13.6
				c2.9,2.5,6.8,3,9.6,3c2.7,0,6.7-0.7,9.1-3.2c3-3.2,3.8-7.6,3.8-14.8v-7.1c0-8.7-0.4-15.4-0.7-17.6c0.7,0.1,2,0.1,2.7,0.1
				c1.5,0,3-0.1,3.3-0.2c-0.3,1.9-0.6,9.1-0.6,17.7v7.1c0,7.1-0.6,13.9-6,18.5c-3.8,3.2-8.7,3.8-12.9,3.8c-4.5,0-9.8-1-13.3-4.1
				c-3.1-2.8-5.3-6.8-5.3-15.6v-9.6c0-8.7-0.4-16.1-0.7-17.6C516,742.4,517.2,742.4,518.3,742.4z"/>
			<path class="st6" d="M576.3,779.5c1.9,2.7,6.6,5.7,12.2,5.7c6.8,0,10-4.3,10-9.7c0-4.5-1.6-7.3-7.8-11.5l-3.5-2.4
				c-7.6-5-9.5-9.7-9.5-14.8c0-7.5,5.7-13.8,15.6-13.8c2.8,0,5.2,0.4,6.9,0.7c1.8,0.3,3.2,0.5,3.7,0.6c-0.2,0.7-0.6,4.5-0.6,6.9
				c-1.4-1.7-4.5-4.2-10.4-4.2c-5.4,0-9.1,3.5-9.1,8.3c0,4,0.9,6.6,7.6,11.1l3.3,2.2c8.6,5.7,10.2,10.1,10.2,15.5
				c0,3.1-1.2,8.7-6.3,12.2c-3.2,2.2-7.2,3.1-10.9,3.1c-4.6,0-9.6-1.3-12-3C575.9,785.5,576.4,781.5,576.3,779.5z"/>
		</g>
	</g>
</g>
</svg>
