<?xml version="1.0" encoding="utf-8"?>
<!-- Generator: Adobe Illustrator 22.0.1, SVG Export Plug-In . SVG Version: 6.00 Build 0)  -->
<svg version="1.1" id="Layer_1" xmlns="http://www.w3.org/2000/svg" xmlns:xlink="http://www.w3.org/1999/xlink" x="0px" y="0px"
	 viewBox="0 0 571 70" style="enable-background:new 0 0 571 70;" xml:space="preserve">
<style type="text/css">
	.st0{display:none;}
	.st1{display:inline;}
	.st2{fill:none;}
	.st3{display:inline;fill:none;}
	.st4{enable-background:new    ;}
	.st5{fill:#9ACA3C;}
	.st6{display:inline;fill:#33669A;}
	.st7{fill:#333333;}
	.st8{fill:#33669A;}
</style>
<g id="Isolation_Mode" class="st0">
	<path class="st6" d="M613.4-14.7c-0.4,1.7-0.6,4.4-0.6,10.6v23.4c0,4.2,0.2,9.4,0.6,10.7c-1.6-0.4-4.1-0.6-6.3-0.7
		c0.7-1.2,1.1-3.2,1.4-7.9c0.1-2.6,0.3-6,0.3-11.4h-29.3c-9.1,0-18.2,0.3-20.8,0.6c0.1-0.7,0.1-1.9,0.1-3c0-1.7-0.1-3.2-0.2-4.4
		c2.4,0.4,11.5,0.6,20.9,0.6h29.3c0-3.3,0-5.2-0.1-9.9c-0.2-4.8-0.5-7.8-1.2-9.6C608.6-15.4,611.9-14.8,613.4-14.7z"/>
</g>
<g id="Layer_3">
	<g>
		<g>
			<path class="st8" d="M9.6,7c1.7,0.4,4.4,0.6,10.6,0.6h23.4c4.2,0,9.4-0.2,10.7-0.6c-0.4,1.6-0.6,4.1-0.7,6.3
				c-1.2-0.7-3.2-1.1-7.9-1.4c-2.6-0.1-6-0.3-11.4-0.3v29.3c0,9.1,0.3,18.2,0.6,20.8c-0.7-0.1-1.9-0.1-3-0.1c-1.7,0-3.2,0.1-4.4,0.2
				c0.4-2.4,0.6-11.5,0.6-20.9V11.6c-3.3,0-5.2,0-9.9,0.1c-4.8,0.2-7.8,0.5-9.6,1.2C8.8,11.8,9.4,8.5,9.6,7z"/>
			<path class="st8" d="M72.3,33.3c0-9.9-0.3-15.9-0.7-17.6c0.9,0.1,2.7,0.1,4.1,0.1h14.2c1.4,0,4-0.1,5.1-0.4
				c-0.1,1.1-0.4,3.3-0.4,5.5c-0.9-0.5-2.2-0.8-5.3-1.1c-2-0.1-5.8-0.2-10.9-0.2c-0.1,0-0.2,0-0.2,0.2v15.3c0,0.2,0.1,0.4,0.2,0.4
				c0.9,0,8.2,0,10.1-0.1c3.4-0.1,4.8-0.3,5.5-0.5c-0.4,1.4-0.6,4.2-0.6,5.5c-0.9-0.4-1.9-0.7-4.4-0.9c-2.2-0.1-9.4-0.2-10.7-0.2
				c-0.1,0-0.2,0.1-0.2,0.3v4.1c0,11.9,0.1,13.5,0.4,13.8c0.2,0.1,0.8,0.3,1.4,0.4c1.5,0.1,3.5,0.3,6.3,0.3c5.8,0,8.7-0.4,10.6-1.2
				c-0.5,1.4-1.1,3.7-1.3,5c-0.2,0.1-0.9,0.1-3.3,0.1c-8.7,0-13.5-0.4-16.2-0.4c-1.9,0-3.5,0.1-4.3,0.1c0.2-2.2,0.6-9.1,0.6-17.7
				L72.3,33.3L72.3,33.3z"/>
			<path class="st8" d="M119.1,33.3c0-8.7-0.2-15.8-0.6-17.6c0.6,0.1,2,0.1,3,0.1c1.6,0,3.5-0.1,4.2-0.2c-0.2,2.3-0.6,9-0.6,17.6
				v10.4c0,12.6,0.1,13.6,0.5,13.9c0.2,0.1,0.7,0.3,1.5,0.4c1.2,0.1,3.5,0.2,6.2,0.2c6.8,0,9.6-0.5,11.2-1.2c-0.5,1.2-1.2,4-1.5,5
				c-0.4,0.1-1,0.1-3.9,0.1c-9.3,0-13.6-0.4-16.8-0.4c-1.7,0-2.8,0-3.5,0.1c0.1-2.2,0.4-9.1,0.4-17.7L119.1,33.3L119.1,33.3z"/>
			<path class="st8" d="M164.4,33.3c0-9.9-0.3-15.9-0.7-17.6c0.9,0.1,2.7,0.1,4.1,0.1h14.3c1.4,0,4-0.1,5.1-0.4
				c-0.1,1.1-0.4,3.3-0.4,5.5c-0.9-0.5-2.2-0.8-5.3-1.1c-2-0.1-5.8-0.2-10.9-0.2c-0.1,0-0.2,0-0.2,0.2v15.3c0,0.2,0.1,0.4,0.2,0.4
				c0.9,0,8.2,0,10.1-0.1c3.4-0.1,4.8-0.3,5.5-0.5c-0.4,1.4-0.6,4.2-0.6,5.5c-0.9-0.4-1.9-0.7-4.4-0.9c-2.2-0.1-9.4-0.2-10.7-0.2
				c-0.1,0-0.2,0.1-0.2,0.3v4.1c0,11.9,0.1,13.5,0.4,13.8c0.2,0.1,0.8,0.3,1.4,0.4c1.5,0.1,3.5,0.3,6.3,0.3c5.8,0,8.7-0.4,10.6-1.2
				c-0.5,1.4-1.1,3.7-1.3,5c-0.2,0.1-0.9,0.1-3.3,0.1c-8.7,0-13.5-0.4-16.2-0.4c-1.9,0-3.5,0.1-4.3,0.1c0.2-2.2,0.6-9.1,0.6-17.7
				V33.3H164.4z"/>
			<path class="st8" d="M213,25.4c0.4-3.5,0.6-6.5,1-9.6c0.1-0.8,0.3-1,0.5-1c0.4,0,0.4,0.2,0.9,0.9c0.7,1.1,4,7.3,5.8,10.4l14,26.1
				l12.1-22.9c3.5-5.8,5.3-9,7.3-13.1c0.6-1,0.9-1.4,1.2-1.4c0.3,0,0.4,0.2,0.6,1.5c0.3,3,0.6,6.5,1,9.7c1.4,14.4,3.2,32.3,4.1,35.9
				c-0.6-0.1-1.5-0.1-3-0.1c-1.7,0-3.2,0.1-4.1,0.2c0-3.8-1.5-23.9-2.2-34.3c-5.6,10.7-12,23.3-17.1,33.7c-0.6,1.1-0.8,1-1.3,0.1
				C227.9,49,222,38.1,217.1,27.8c-0.7,10.8-2.2,30-2.2,34.1c-0.7-0.1-1.9-0.1-2.6-0.1c-1.7,0-3,0.1-3.7,0.2
				C209.2,58.5,211.5,39.7,213,25.4z"/>
			<path class="st8" d="M291.9,46.2c-0.1,0-0.3,0-0.3,0.1c-1.9,5.3-4.8,12.6-5.5,15.5c-0.7-0.1-1.3-0.1-2.7-0.1
				c-1.5,0-3.1,0.1-3.7,0.2c1.6-3.2,4-8.6,6.6-14.8l12.4-29.8c0.9-1.9,1.2-2.6,1.6-2.6c0.3,0,0.6,0.5,1.6,2.6
				c0.7,1.5,7,15.3,12.7,27.7c3,6.6,6.5,14.4,8.1,16.8c-1.2-0.1-2.4-0.1-3.2-0.1c-1.7,0-3.7,0.1-4.5,0.2c-1-2.8-4.3-10.7-6.3-15.6
				c-0.1-0.1-0.1-0.1-0.3-0.1L291.9,46.2L291.9,46.2z M306.9,42.3c0.2,0,0.2-0.1,0.2-0.2l-7.3-17.2l-6.6,17.2
				c-0.1,0.1-0.1,0.2,0.1,0.2H306.9z"/>
			<path class="st8" d="M346.4,56.1c-6-5.3-7.8-12.7-7.8-18.1c0-4.5,1.2-11.3,6.9-16.6c4-3.8,10.2-6.7,19.7-6.7
				c8.6,0,13.8,2,16.4,2.7c-0.4,1.2-0.9,4-0.9,6.2c-2.5-2.5-8-5-15.9-5c-7.5,0-11.5,2.4-14,4.7c-4.1,3.9-5.5,8.9-5.5,14.1
				c0,9.8,6.2,20.9,22.2,20.9c5.5,0,10.6-1,13.8-3.3c-0.5,1.4-1,4.2-1.2,5.6c-2.4,1-7.9,2.1-13.3,2.1
				C358.4,62.7,351.7,60.7,346.4,56.1z"/>
			<path class="st8" d="M403.6,33.3c0-8.7-0.2-15.3-0.7-17.6c0.7,0.1,2.1,0.1,3.1,0.1c1.5,0,3.1-0.1,4-0.2
				c-0.1,2.2-0.4,8.2-0.4,17.1v1.1c0,0.2,0.1,0.3,0.2,0.3h26.4c0.1,0,0.2,0,0.2-0.3v-1.1c0-8.7-0.2-14.8-0.5-17.1
				c0.8,0.1,1.8,0.1,3,0.1c1.4,0,3-0.1,4-0.2c-0.3,2.2-0.6,9.1-0.6,17.7V44c0,7.7,0.3,15.1,0.6,17.7c-0.7-0.1-2.1-0.1-3-0.1
				c-1.4,0-3.5,0.1-4,0.2c0.3-2.4,0.5-9.9,0.5-17.8v-5.4c0-0.2-0.1-0.2-0.1-0.2h-26.5c-0.1,0-0.2,0.1-0.2,0.2V44
				c0,7.7,0.3,15.1,0.6,17.7c-0.6-0.1-1.7-0.1-2.8-0.1c-1.7,0-3.3,0.1-4.2,0.2c0.2-2.5,0.5-9.9,0.5-17.8V33.3H403.6z"/>
			<path class="st8" d="M472.2,15.8c1.9,0,3.5-0.1,4.3-0.2c-0.3,1.9-0.5,9.1-0.5,17.7v8.4c0,8,1.8,11.2,4.5,13.6
				c2.9,2.5,6.8,3,9.6,3c2.7,0,6.7-0.7,9.1-3.2c3-3.2,3.8-7.6,3.8-14.8v-7.1c0-8.7-0.4-15.4-0.7-17.6c0.7,0.1,2,0.1,2.7,0.1
				c1.5,0,3-0.1,3.3-0.2c-0.3,1.9-0.6,9.1-0.6,17.7v7.1c0,7.1-0.6,13.9-6,18.5c-3.8,3.2-8.7,3.8-12.9,3.8c-4.5,0-9.8-1-13.3-4.1
				c-3.1-2.8-5.3-6.8-5.3-15.6v-9.6c0-8.7-0.4-16.1-0.7-17.6C469.9,15.8,471.1,15.8,472.2,15.8z"/>
			<path class="st8" d="M530.2,52.9c1.9,2.7,6.6,5.7,12.2,5.7c6.8,0,10-4.3,10-9.7c0-4.5-1.6-7.3-7.8-11.5l-3.5-2.4
				c-7.6-5-9.5-9.7-9.5-14.8c0-7.5,5.7-13.8,15.6-13.8c2.8,0,5.2,0.4,6.9,0.7c1.8,0.3,3.2,0.5,3.7,0.6c-0.2,0.7-0.6,4.5-0.6,6.9
				c-1.4-1.7-4.5-4.2-10.4-4.2c-5.4,0-9.1,3.5-9.1,8.3c0,4,0.9,6.6,7.6,11.1l3.3,2.2c8.6,5.7,10.2,10.1,10.2,15.5
				c0,3.1-1.2,8.7-6.3,12.2c-3.2,2.2-7.2,3.1-10.9,3.1c-4.6,0-9.6-1.3-12-3C529.8,58.9,530.3,54.9,530.2,52.9z"/>
		</g>
	</g>
</g>
</svg>
